<svg xmlns="http://www.w3.org/2000/svg" width="200" height="80" viewBox="0 0 200 80" fill="none">
<path d="M12.8001 29.5002C13.4001 29.5002 13.9001 29.0002 13.9001 28.4002C13.9001 27.8002 13.4001 27.2002 12.8001 27.2002C12.2001 27.2002 11.6001 27.7002 11.6001 28.4002C11.6001 29.0002 12.2001 29.5002 12.8001 29.5002ZM12.8001 28.0002C13.0001 28.0002 13.2001 28.2002 13.2001 28.4002C13.2001 28.6002 13.0001 28.8002 12.8001 28.8002C12.6001 28.8002 12.4001 28.6002 12.4001 28.4002C12.4001 28.1002 12.6001 28.0002 12.8001 28.0002Z" fill="#22D0EE" stroke="#22D0EE" stroke-width="0.1" stroke-miterlimit="10"/>
<path d="M10 23C6.2 23 3 26.1 3 30C3 33.8 6.1 37 10 37C13.9 37 17 33.9 17 30C17 26.2 13.8 23 10 23ZM10 36.2C6.6 36.2 3.8 33.4 3.8 30C3.8 26.6 6.6 23.8 10 23.8C13.4 23.8 16.2 26.6 16.2 30C16.2 33.4 13.4 36.2 10 36.2Z" fill="#22D0EE" stroke="#22D0EE" stroke-width="0.1" stroke-miterlimit="10"/>
<path d="M14.6002 31.2C14.5002 31.1 14.4002 31 14.3002 31H5.7002C5.6002 31 5.5002 31.1 5.4002 31.2C5.3002 31.3 5.3002 31.4 5.4002 31.6C6.1002 33.6 7.9002 34.9 10.0002 34.9C12.1002 34.9 13.9002 33.6 14.6002 31.6C14.7002 31.5 14.7002 31.3 14.6002 31.2ZM10.0002 34.1C8.4002 34.1 7.0002 33.2 6.3002 31.9H13.6002C13.0002 33.2 11.6002 34.1 10.0002 34.1Z" fill="#22D0EE" stroke="#22D0EE" stroke-width="0.1" stroke-miterlimit="10"/>
<path d="M7.2001 29.5002C7.8001 29.5002 8.4001 29.0002 8.4001 28.4002C8.4001 27.8002 7.9001 27.2002 7.2001 27.2002C6.6001 27.2002 6.1001 27.7002 6.1001 28.4002C6.1001 29.0002 6.6001 29.5002 7.2001 29.5002ZM7.2001 28.0002C7.4001 28.0002 7.6001 28.2002 7.6001 28.4002C7.6001 28.6002 7.4001 28.8002 7.2001 28.8002C7.0001 28.8002 6.8001 28.6002 6.8001 28.4002C6.8001 28.1002 7.0001 28.0002 7.2001 28.0002Z" fill="#22D0EE" stroke="#22D0EE" stroke-width="0.1" stroke-miterlimit="10"/>
<path d="M64.1002 33.3999H66.4002C66.6002 33.3999 66.8002 33.5999 66.8002 33.7999V35.8999C66.8002 36.0999 66.6002 36.2999 66.4002 36.2999H64.1002C63.9002 36.2999 63.7002 36.0999 63.7002 35.8999V33.7999C63.7002 33.5999 63.8002 33.3999 64.1002 33.3999Z" stroke="#22D0EE"/>
<path d="M73.5001 33.5H75.9001C76.1001 33.5 76.3001 33.7 76.3001 33.9V35.9C76.3001 36.1 76.1001 36.3 75.9001 36.3H73.5001C73.3001 36.3 73.1001 36.1 73.1001 35.9V33.9C73.1001 33.6 73.3001 33.5 73.5001 33.5Z" stroke="#22D0EE"/>
<path d="M63.7002 28.3999H76.3002V33.3999H63.7002V28.3999Z" stroke="#22D0EE"/>
<path d="M65.5002 23.6001H74.4002C75.4002 23.6001 76.3002 24.4001 76.3002 25.5001V28.6001H63.7002V25.5001C63.7002 24.5001 64.5002 23.6001 65.5002 23.6001Z" stroke="#22D0EE"/>
<path d="M66.2003 31.8999C66.6973 31.8999 67.1003 31.4522 67.1003 30.8999C67.1003 30.3476 66.6973 29.8999 66.2003 29.8999C65.7032 29.8999 65.3003 30.3476 65.3003 30.8999C65.3003 31.4522 65.7032 31.8999 66.2003 31.8999Z" fill="#22D0EE"/>
<path d="M73.8004 31.8999C74.2974 31.8999 74.7004 31.4522 74.7004 30.8999C74.7004 30.3476 74.2974 29.8999 73.8004 29.8999C73.3033 29.8999 72.9004 30.3476 72.9004 30.8999C72.9004 31.4522 73.3033 31.8999 73.8004 31.8999Z" fill="#22D0EE"/>
<path d="M96.4001 30C96.4001 33.6 93.5001 36.5 90.0001 36.5C86.5001 36.5 83.6001 33.6 83.6001 30C83.6001 26.4 86.5001 23.5 90.0001 23.5C93.5001 23.5 96.4001 26.4 96.4001 30Z" stroke="#22D0EE"/>
<path d="M96.3003 28.6002V28.7002C95.4003 28.8002 93.4003 28.8002 91.7003 27.6002C90.6003 26.8002 89.7003 25.9002 89.1003 25.1002C88.8003 24.7002 88.5003 24.3002 88.4003 24.1002C88.3003 24.0002 88.3003 24.0002 88.3003 23.9002C88.8003 23.8002 89.5003 23.7002 90.3003 23.8002C91.5003 23.8002 92.8003 24.1002 93.8003 24.9002C94.8003 25.7002 95.5003 26.7002 95.9003 27.7002C96.1003 27.9002 96.2003 28.3002 96.3003 28.6002Z" stroke="#22D0EE"/>
<path d="M84 32.1998V32.0998C84.9 31.8998 86.9 31.6998 88.7 32.6998C89.8 33.3998 90.6 34.1998 91.1 34.9998C91.5 35.4998 91.7 35.9998 91.8 36.2998C91.4 36.3998 90.8 36.4998 90.1 36.5998C89.1 36.5998 88 36.4998 86.9 35.7998C85.8 35.0998 85 34.1998 84.5 33.2998C84.2 32.7998 84.1 32.4998 84 32.1998Z" stroke="#22D0EE"/>
<path d="M113.4 23.9001C113.3 23.8001 113.2 23.8001 113.1 23.8001H111.9L111.6 24.4001C110.9 25.8001 109 25.8001 108.3 24.5001L107.9 23.8001H106.6C106.5 23.8001 106.4 23.8001 106.3 23.9001L103.7 26.8001L105.1 28.8001L105.9 28.0001L106.5 27.4001V28.3001L106.6 36.5001H113.4L113.5 28.3001V27.4001L114.1 28.0001L114.9 28.8001L116.3 26.8001L113.4 23.9001ZM113.4 23.9001L113.7 23.6001" stroke="#22D0EE" stroke-linecap="round"/>
<path d="M110.1 27.7002H112.1V28.6002C112.1 29.0002 111.7 29.3002 111.1 29.3002C110.5 29.3002 110.1 29.0002 110.1 28.6002V27.7002Z" stroke="#22D0EE"/>
<path d="M126.8 34.3001C126.8 35.5001 125.8 36.5001 124.6 36.5001C123.4 36.5001 122.4 35.5001 122.4 34.3001C122.4 33.1001 123.4 32.1001 124.6 32.1001C125.8 32.1001 126.8 33.1001 126.8 34.3001Z" stroke="#22D0EE"/>
<path d="M137.6 34.3001C137.6 35.5001 136.6 36.5001 135.4 36.5001C134.2 36.5001 133.2 35.5001 133.2 34.3001C133.2 33.1001 134.2 32.1001 135.4 32.1001C136.6 32.1001 137.6 33.1001 137.6 34.3001Z" stroke="#22D0EE"/>
<path d="M126.8 24.3999V34.2999" stroke="#22D0EE"/>
<path d="M137.7 24.3999V34.2999" stroke="#22D0EE"/>
<path d="M126.8 23.5H137.6V26.2H126.8V23.5Z" stroke="#22D0EE"/>
<path d="M170.8 23.1001C170.5 23.1001 170.3 23.1001 170 23.1001C167.9 23.1001 166 24.1001 164.7 25.6001H164.6L164.5 25.5001L163.5 24.3001L163.2 27.7001L166.6 28.0001L165.5 26.7001L165.4 26.6001L165.5 26.5001C166.6 25.0001 168.5 24.2001 170.5 24.4001C173.7 24.7001 176 27.5001 175.7 30.7001C175.4 33.7001 172.6 36.0001 169.6 35.8001C166.5 35.6001 164.2 32.9001 164.3 29.8001L163 29.7001C162.8 33.5001 165.6 36.8001 169.3 37.1001C173.2 37.4001 176.6 34.5001 176.9 30.6001C177.2 26.8001 174.4 23.5001 170.8 23.1001Z" fill="#22D0EE"/>
<path d="M170.3 27.4003C170.3 27.1003 170 26.8003 169.7 26.8003C169.4 26.8003 169.1 27.1003 169.1 27.4003V30.6003C169.1 30.8003 169.2 30.9003 169.3 31.0003C169.4 31.1003 169.6 31.2003 169.7 31.2003H172.1C172.5 31.2003 172.7 30.9003 172.7 30.6003C172.7 30.2003 172.4 30.0003 172.1 30.0003H170.5H170.3V29.8003V27.4003Z" fill="#22D0EE"/>
<path d="M186.2 23.3999H193.9C195.4 23.3999 196.6 24.5999 196.6 26.0999V33.7999C196.6 35.2999 195.4 36.4999 193.9 36.4999H186.2C184.7 36.4999 183.5 35.2999 183.5 33.7999V26.0999C183.4 24.5999 184.7 23.3999 186.2 23.3999Z" stroke="#22D0EE"/>
<path d="M186 29.5997C186.386 29.5997 186.7 29.2863 186.7 28.8997C186.7 28.5131 186.386 28.1997 186 28.1997C185.613 28.1997 185.3 28.5131 185.3 28.8997C185.3 29.2863 185.613 29.5997 186 29.5997Z" fill="#22D0EE"/>
<path d="M194 27.4C194.386 27.4 194.7 27.0866 194.7 26.7C194.7 26.3134 194.386 26 194 26C193.613 26 193.3 26.3134 193.3 26.7C193.3 27.0866 193.613 27.4 194 27.4Z" fill="#22D0EE"/>
<path d="M186 33.2998L186.4 32.9998C186.8 32.6998 187.4 32.6998 187.9 32.8998L188.9 33.2998C189.4 33.4998 189.9 33.4998 190.4 33.1998L191.2 32.6998C191.6 32.3998 192.2 32.3998 192.7 32.5998L194.5 33.3998" stroke="#22D0EE" stroke-linecap="round"/>
<path d="M156 24.2999C155.8 24.1999 155.6 24.1999 155.5 24.2999C155.5 24.2999 155.3 24.3999 154.6 24.4999C153.9 24.4999 152.2 24.3999 150.8 23.8999C150 23.5999 149.1 23.3999 148.3 23.3999C148.1 23.3999 147.9 23.3999 147.8 23.3999C146.5 23.3999 145.3 23.6999 144.2 24.3999C144 24.4999 144 24.5999 144 24.7999V36.3999C144 36.6999 144.1 36.8999 144.3 36.8999C144.9 36.8999 144.8 36.4999 144.8 36.2999V30.5999C145.5 30.2999 148 29.4999 150.6 30.4999C152.2 31.0999 154.1 31.1999 154.9 31.1999C155.7 31.1999 156.2 30.8999 156.2 30.8999C156.4 30.7999 156.5 30.6999 156.5 30.4999V24.7999C156.2 24.5999 156.1 24.3999 156 24.2999ZM155.6 30.1999C155.5 30.1999 154.9 30.2999 154.6 30.2999C153.9 30.2999 152.2 30.1999 150.8 29.6999C148.3 28.6999 145.8 29.1999 144.6 29.5999V24.6999C145.5 24.1999 146.8 23.9999 147.8 23.9999C147.9 23.9999 148.1 23.9999 148.2 23.9999C148.9 23.9999 149.7 24.1999 150.4 24.3999C152 24.9999 153.9 25.0999 154.7 25.0999C154.9 25.0999 155.5 25.0999 155.7 24.9999V30.1999H155.6Z" fill="#22D0EE" stroke="#22D0EE" stroke-width="0.25" stroke-miterlimit="10"/>
<path d="M48.1001 23.5H51.8001C54.3001 23.5 56.3001 25.5 56.3001 28C56.3001 28.5 55.9001 28.9 55.4001 28.9H44.5001C44.0001 28.9 43.6001 28.5 43.6001 28C43.6001 25.5 45.6001 23.5 48.1001 23.5Z" stroke="#22D0EE"/>
<path d="M43.5002 28.7998C43.3002 28.8998 43.0002 29.9998 43.5002 30.2998C44.9002 31.2998 52.0002 31.0998 54.8002 30.8998C55.6002 30.7998 56.4002 30.4998 56.5002 29.6998C56.5002 29.3998 56.4002 29.0998 55.9002 28.7998" stroke="#22D0EE" stroke-linecap="round"/>
<path d="M43.5002 30.5999L43.3002 30.9999C43.1002 31.4999 43.5002 31.9999 44.0002 31.8999C44.3002 31.7999 44.5002 31.8999 44.7002 32.1999L44.8002 32.3999C45.1002 32.8999 45.8002 32.9999 46.3002 32.5999C46.6002 32.3999 47.0002 32.2999 47.3002 32.3999L48.1002 32.6999C48.5002 32.8999 48.9002 32.7999 49.3002 32.6999L49.8002 32.4999C50.2002 32.2999 50.7002 32.2999 51.1002 32.4999L51.6002 32.6999C52.0002 32.8999 52.4002 32.8999 52.8002 32.6999L53.0002 32.5999C53.3002 32.3999 53.8002 32.3999 54.1002 32.6999L54.3002 32.8999C54.6002 33.1999 55.1002 33.0999 55.3002 32.6999L55.4002 32.4999C55.5002 32.2999 55.4002 32.1999 55.6002 32.1999C56.1002 32.1999 56.8002 31.8999 56.7002 31.4999L56.3002 30.3999" stroke="#22D0EE" stroke-linecap="round"/>
<path d="M43.5002 32.2002C43.4002 32.4002 43.2002 33.0002 43.5002 33.3002C43.8002 33.7002 46.5002 34.4002 49.9002 34.4002C52.1002 34.4002 54.5002 34.1002 55.9002 33.8002C56.4002 33.7002 56.8002 33.3002 56.7002 32.9002C56.7002 32.7002 56.5002 32.4002 56.3002 32.2002" stroke="#22D0EE" stroke-linecap="round"/>
<path d="M43.5 33.2998C43.5 33.7998 44.1 35.5998 44.8 35.9998C46.6 36.7998 50.5 36.6998 52.9 36.4998C54.2 36.3998 55.4 35.7998 56.1 34.6998C56.4 34.1998 56.6 33.6998 56.6 33.2998" stroke="#22D0EE" stroke-linecap="round"/>
<path d="M51.6003 26.9001C51.766 26.9001 51.9003 26.721 51.9003 26.5001C51.9003 26.2792 51.766 26.1001 51.6003 26.1001C51.4346 26.1001 51.3003 26.2792 51.3003 26.5001C51.3003 26.721 51.4346 26.9001 51.6003 26.9001Z" fill="#22D0EE"/>
<path d="M53.0002 25.4001C53.1659 25.4001 53.3002 25.221 53.3002 25.0001C53.3002 24.7792 53.1659 24.6001 53.0002 24.6001C52.8345 24.6001 52.7002 24.7792 52.7002 25.0001C52.7002 25.221 52.8345 25.4001 53.0002 25.4001Z" fill="#22D0EE"/>
<path d="M53.0002 27.5998C53.1659 27.5998 53.3002 27.4207 53.3002 27.1998C53.3002 26.9789 53.1659 26.7998 53.0002 26.7998C52.8345 26.7998 52.7002 26.9789 52.7002 27.1998C52.7002 27.4207 52.8345 27.5998 53.0002 27.5998Z" fill="#22D0EE"/>
<path d="M54.3 26.9001C54.4657 26.9001 54.6 26.721 54.6 26.5001C54.6 26.2792 54.4657 26.1001 54.3 26.1001C54.1343 26.1001 54 26.2792 54 26.5001C54 26.721 54.1343 26.9001 54.3 26.9001Z" fill="#22D0EE"/>
<path d="M50.9001 25.4001C51.0658 25.4001 51.2001 25.221 51.2001 25.0001C51.2001 24.7792 51.0658 24.6001 50.9001 24.6001C50.7344 24.6001 50.6001 24.7792 50.6001 25.0001C50.6001 25.221 50.7344 25.4001 50.9001 25.4001Z" fill="#22D0EE"/>
<path d="M24.2002 30.9999V23.3999C24.3002 23.4999 25.0002 24.2999 27.0002 26.4999C29.5002 24.8999 32.6002 25.7999 33.9002 26.4999L36.3002 23.3999V30.4999C36.3002 31.6999 36.2002 32.9999 35.4002 33.8999C34.4002 35.0999 32.7002 36.3999 30.1002 36.3999C27.2002 36.3999 25.6002 34.8999 24.8002 33.4999C24.2002 32.8999 24.2002 31.9999 24.2002 30.9999Z" stroke="#22D0EE"/>
<path d="M21.2002 30L26.6002 31.2" stroke="#22D0EE" stroke-linecap="round"/>
<path d="M21.2002 34.0999L26.6002 32.8999" stroke="#22D0EE" stroke-linecap="round"/>
<path d="M38.8004 30L33.4004 31.2" stroke="#22D0EE" stroke-linecap="round"/>
<path d="M38.8004 34.0999L33.4004 32.8999" stroke="#22D0EE" stroke-linecap="round"/>
<path fill-rule="evenodd" clip-rule="evenodd" d="M29.5003 32.4001L29.0003 31.7001C28.8003 31.4001 29.0003 31.1001 29.3003 31.1001H30.7003C31.0003 31.1001 31.2003 31.5001 31.0003 31.7001L30.3003 32.7001C29.6003 33.9001 27.7003 33.8001 27.2003 32.4001L27.1003 32.2001C27.0003 32.0001 27.1003 31.8001 27.3003 31.7001C27.5003 31.6001 27.7003 31.7001 27.8003 31.9001L27.9003 32.1001C28.3003 32.8001 29.1003 32.9001 29.5003 32.4001Z" fill="#22D0EE"/>
<path d="M32.4 32.1001L32.3 32.3001C31.9 33.3001 30.5 33.4001 30 32.5001" stroke="#22D0EE" stroke-linecap="round"/>
<path d="M27.6004 30.4C27.987 30.4 28.3004 30.0866 28.3004 29.7C28.3004 29.3134 27.987 29 27.6004 29C27.2138 29 26.9004 29.3134 26.9004 29.7C26.9004 30.0866 27.2138 30.4 27.6004 30.4Z" fill="#22D0EE"/>
<path d="M32.4002 30.4C32.7868 30.4 33.1002 30.0866 33.1002 29.7C33.1002 29.3134 32.7868 29 32.4002 29C32.0136 29 31.7002 29.3134 31.7002 29.7C31.7002 30.0866 32.0136 30.4 32.4002 30.4Z" fill="#22D0EE"/>
<path d="M12.8001 49.5002C13.4001 49.5002 13.9001 49.0002 13.9001 48.4002C13.9001 47.8002 13.4001 47.2002 12.8001 47.2002C12.2001 47.2002 11.6001 47.7002 11.6001 48.4002C11.6001 49.0002 12.2001 49.5002 12.8001 49.5002ZM12.8001 48.0002C13.0001 48.0002 13.2001 48.2002 13.2001 48.4002C13.2001 48.6002 13.0001 48.8002 12.8001 48.8002C12.6001 48.8002 12.4001 48.6002 12.4001 48.4002C12.4001 48.1002 12.6001 48.0002 12.8001 48.0002Z" fill="#C0C0BF" stroke="#C0C0BF" stroke-width="0.1" stroke-miterlimit="10"/>
<path d="M14.6002 51.2C14.5002 51.1 14.4002 51 14.3002 51H5.7002C5.6002 51 5.5002 51.1 5.4002 51.2C5.3002 51.3 5.3002 51.4 5.4002 51.6C6.1002 53.6 7.9002 54.9 10.0002 54.9C12.1002 54.9 13.9002 53.6 14.6002 51.6C14.7002 51.5 14.7002 51.3 14.6002 51.2ZM10.0002 54.1C8.4002 54.1 7.0002 53.2 6.3002 51.9H13.6002C13.0002 53.2 11.6002 54.1 10.0002 54.1Z" fill="#C0C0BF" stroke="#C0C0BF" stroke-width="0.1" stroke-miterlimit="10"/>
<path d="M7.2001 49.5002C7.8001 49.5002 8.4001 49.0002 8.4001 48.4002C8.4001 47.8002 7.9001 47.2002 7.2001 47.2002C6.6001 47.2002 6.1001 47.7002 6.1001 48.4002C6.1001 49.0002 6.6001 49.5002 7.2001 49.5002ZM7.2001 48.0002C7.4001 48.0002 7.6001 48.2002 7.6001 48.4002C7.6001 48.6002 7.4001 48.8002 7.2001 48.8002C7.0001 48.8002 6.8001 48.6002 6.8001 48.4002C6.8001 48.1002 7.0001 48.0002 7.2001 48.0002Z" fill="#C0C0BF" stroke="#C0C0BF" stroke-width="0.1" stroke-miterlimit="10"/>
<path d="M10 43C6.2 43 3 46.1 3 50C3 53.8 6.1 57 10 57C13.9 57 17 53.9 17 50C17 46.2 13.8 43 10 43ZM10 56.2C6.6 56.2 3.8 53.4 3.8 50C3.8 46.6 6.6 43.8 10 43.8C13.4 43.8 16.2 46.6 16.2 50C16.2 53.4 13.4 56.2 10 56.2Z" fill="#C0C0BF" stroke="#C0C0BF" stroke-width="0.1" stroke-miterlimit="10"/>
<path d="M64.1002 53.3999H66.4002C66.6002 53.3999 66.8002 53.5999 66.8002 53.7999V55.8999C66.8002 56.0999 66.6002 56.2999 66.4002 56.2999H64.1002C63.9002 56.2999 63.7002 56.0999 63.7002 55.8999V53.7999C63.7002 53.5999 63.8002 53.3999 64.1002 53.3999Z" stroke="#C0C0BF"/>
<path d="M73.5001 53.5H75.9001C76.1001 53.5 76.3001 53.7 76.3001 53.9V55.9C76.3001 56.1 76.1001 56.3 75.9001 56.3H73.5001C73.3001 56.3 73.1001 56.1 73.1001 55.9V53.9C73.1001 53.6 73.3001 53.5 73.5001 53.5Z" stroke="#C0C0BF"/>
<path d="M63.7002 48.3999H76.3002V53.3999H63.7002V48.3999Z" stroke="#C0C0BF"/>
<path d="M65.5002 43.6001H74.4002C75.4002 43.6001 76.3002 44.4001 76.3002 45.5001V48.6001H63.7002V45.5001C63.7002 44.5001 64.5002 43.6001 65.5002 43.6001Z" stroke="#C0C0BF"/>
<path d="M66.2003 51.8999C66.6973 51.8999 67.1003 51.4522 67.1003 50.8999C67.1003 50.3476 66.6973 49.8999 66.2003 49.8999C65.7032 49.8999 65.3003 50.3476 65.3003 50.8999C65.3003 51.4522 65.7032 51.8999 66.2003 51.8999Z" fill="#C0C0BF"/>
<path d="M73.8004 51.8999C74.2974 51.8999 74.7004 51.4522 74.7004 50.8999C74.7004 50.3476 74.2974 49.8999 73.8004 49.8999C73.3033 49.8999 72.9004 50.3476 72.9004 50.8999C72.9004 51.4522 73.3033 51.8999 73.8004 51.8999Z" fill="#C0C0BF"/>
<path d="M96.4001 50C96.4001 53.6 93.5001 56.5 90.0001 56.5C86.5001 56.5 83.6001 53.6 83.6001 50C83.6001 46.4 86.5001 43.5 90.0001 43.5C93.5001 43.5 96.4001 46.4 96.4001 50Z" stroke="#C0C0BF"/>
<path d="M96.3003 48.6001V48.7001C95.4003 48.8001 93.4003 48.8001 91.7003 47.5001C90.6003 46.7001 89.7003 45.8001 89.1003 45.0001C88.8003 44.6001 88.5003 44.2001 88.4003 44.0001C88.3003 43.9001 88.3003 43.8001 88.3003 43.8001C88.8003 43.7001 89.5003 43.6001 90.3003 43.6001C91.5003 43.6001 92.8003 43.9001 93.8003 44.7001C94.8003 45.5001 95.5003 46.5001 95.9003 47.5001C96.1003 47.9001 96.2003 48.3001 96.3003 48.6001Z" stroke="#C0C0BF"/>
<path d="M84 52.1998V52.0998C84.9 51.8998 86.9 51.6998 88.7 52.6998C89.8 53.3998 90.6 54.1998 91.1 54.9998C91.5 55.4998 91.7 55.9998 91.8 56.2998C91.4 56.3998 90.8 56.4998 90.1 56.5998C89.1 56.5998 88 56.4998 86.9 55.7998C85.8 55.0998 85 54.1998 84.5 53.2998C84.2 52.7998 84.1 52.4998 84 52.1998Z" stroke="#C0C0BF"/>
<path d="M113.4 43.9001C113.3 43.8001 113.2 43.8001 113.1 43.8001H111.9L111.6 44.4001C110.9 45.8001 109 45.8001 108.3 44.5001L107.9 43.8001H106.6C106.5 43.8001 106.4 43.8001 106.3 43.9001L103.7 46.8001L105.1 48.8001L105.9 48.0001L106.5 47.3001V48.2001L106.6 56.4001H113.4L113.5 48.2001V47.3001L114.1 48.0001L114.9 48.8001L116.3 46.8001L113.4 43.9001ZM113.4 43.9001L113.7 43.6001" stroke="#C0C0BF" stroke-linecap="round"/>
<path d="M110.1 47.7002H112.1V48.6002C112.1 49.0002 111.7 49.3002 111.1 49.3002C110.5 49.3002 110.1 49.0002 110.1 48.6002V47.7002Z" stroke="#C0C0BF"/>
<path d="M126.8 54.3001C126.8 55.5001 125.8 56.5001 124.6 56.5001C123.4 56.5001 122.4 55.5001 122.4 54.3001C122.4 53.1001 123.4 52.1001 124.6 52.1001C125.8 52.1001 126.8 53.1001 126.8 54.3001Z" stroke="#C0C0BF"/>
<path d="M137.6 54.3001C137.6 55.5001 136.6 56.5001 135.4 56.5001C134.2 56.5001 133.2 55.5001 133.2 54.3001C133.2 53.1001 134.2 52.1001 135.4 52.1001C136.6 52.1001 137.6 53.1001 137.6 54.3001Z" stroke="#C0C0BF"/>
<path d="M126.8 44.3999V54.2999" stroke="#C0C0BF"/>
<path d="M137.7 44.3999V54.2999" stroke="#C0C0BF"/>
<path d="M126.8 43.5H137.6V46.2H126.8V43.5Z" stroke="#C0C0BF"/>
<path d="M170.8 43.1001C170.5 43.1001 170.3 43.1001 170 43.1001C167.9 43.1001 166 44.1001 164.7 45.6001H164.6L164.5 45.5001L163.5 44.3001L163.2 47.7001L166.6 48.0001L165.5 46.7001L165.4 46.6001L165.5 46.5001C166.6 45.0001 168.5 44.2001 170.5 44.4001C173.7 44.7001 176 47.5001 175.7 50.7001C175.4 53.7001 172.6 56.0001 169.6 55.8001C166.5 55.6001 164.2 52.9001 164.3 49.8001L163 49.7001C162.8 53.5001 165.6 56.8001 169.3 57.1001C173.2 57.4001 176.6 54.5001 176.9 50.6001C177.2 46.8001 174.4 43.5001 170.8 43.1001Z" fill="#C0C0BF"/>
<path d="M170.3 47.4003C170.3 47.1003 170 46.8003 169.7 46.8003C169.4 46.8003 169.1 47.1003 169.1 47.4003V50.6003C169.1 50.8003 169.2 50.9003 169.3 51.0003C169.4 51.1003 169.6 51.2003 169.7 51.2003H172.1C172.5 51.2003 172.7 50.9003 172.7 50.6003C172.7 50.3003 172.4 50.0003 172.1 50.0003H170.5H170.3V49.8003V47.4003Z" fill="#C0C0BF"/>
<path d="M186.2 43.3999H193.9C195.4 43.3999 196.6 44.5999 196.6 46.0999V53.7999C196.6 55.2999 195.4 56.4999 193.9 56.4999H186.2C184.7 56.4999 183.5 55.2999 183.5 53.7999V46.0999C183.4 44.6999 184.7 43.3999 186.2 43.3999Z" stroke="#C0C0BF"/>
<path d="M186 49.5997C186.386 49.5997 186.7 49.2863 186.7 48.8997C186.7 48.5131 186.386 48.1997 186 48.1997C185.613 48.1997 185.3 48.5131 185.3 48.8997C185.3 49.2863 185.613 49.5997 186 49.5997Z" fill="#C0C0BF"/>
<path d="M194 47.4C194.386 47.4 194.7 47.0866 194.7 46.7C194.7 46.3134 194.386 46 194 46C193.613 46 193.3 46.3134 193.3 46.7C193.3 47.0866 193.613 47.4 194 47.4Z" fill="#C0C0BF"/>
<path d="M186 53.2998L186.4 52.9998C186.8 52.6998 187.4 52.6998 187.9 52.8998L188.9 53.2998C189.4 53.4998 189.9 53.4998 190.4 53.1998L191.2 52.6998C191.6 52.3998 192.2 52.3998 192.7 52.5998L194.5 53.3998" stroke="#C0C0BF" stroke-linecap="round"/>
<path d="M156 44.2999C155.8 44.1999 155.6 44.1999 155.5 44.2999C155.5 44.2999 155.3 44.3999 154.6 44.4999C153.9 44.4999 152.2 44.3999 150.8 43.8999C150 43.5999 149.1 43.3999 148.3 43.3999C148.1 43.3999 147.9 43.3999 147.8 43.3999C146.5 43.3999 145.3 43.6999 144.2 44.3999C144 44.4999 144 44.5999 144 44.7999V56.3999C144 56.6999 144.1 56.8999 144.3 56.8999C144.9 56.8999 144.8 56.4999 144.8 56.2999V50.5999C145.5 50.2999 148 49.4999 150.6 50.4999C152.2 51.0999 154.1 51.1999 154.9 51.1999C155.7 51.1999 156.2 50.8999 156.2 50.8999C156.4 50.7999 156.5 50.6999 156.5 50.4999V44.7999C156.2 44.5999 156.1 44.3999 156 44.2999ZM155.6 50.1999C155.5 50.1999 154.9 50.2999 154.6 50.2999C153.9 50.2999 152.2 50.1999 150.8 49.6999C148.3 48.6999 145.8 49.1999 144.6 49.5999V44.6999C145.5 44.1999 146.8 43.9999 147.8 43.9999C147.9 43.9999 148.1 43.9999 148.2 43.9999C148.9 43.9999 149.7 44.1999 150.4 44.3999C152 44.9999 153.9 45.0999 154.7 45.0999C154.9 45.0999 155.5 45.0999 155.7 44.9999V50.1999H155.6Z" fill="#C0C0BF" stroke="#C0C0BF" stroke-width="0.25" stroke-miterlimit="10"/>
<path d="M48.1001 43.5H51.8001C54.3001 43.5 56.3001 45.5 56.3001 48C56.3001 48.5 55.9001 48.9 55.4001 48.9H44.5001C44.0001 48.9 43.6001 48.5 43.6001 48C43.6001 45.5 45.6001 43.5 48.1001 43.5Z" stroke="#C0C0BF"/>
<path d="M43.5002 48.7998C43.3002 48.8998 43.0002 49.9998 43.5002 50.2998C44.9002 51.2998 52.0002 51.0998 54.8002 50.8998C55.6002 50.7998 56.4002 50.4998 56.5002 49.6998C56.5002 49.3998 56.4002 49.0998 55.9002 48.7998" stroke="#C0C0BF" stroke-linecap="round"/>
<path d="M43.5002 50.5999L43.3002 50.9999C43.1002 51.4999 43.5002 51.9999 44.0002 51.8999C44.3002 51.7999 44.5002 51.8999 44.7002 52.1999L44.8002 52.3999C45.1002 52.8999 45.8002 52.9999 46.3002 52.5999C46.6002 52.3999 47.0002 52.2999 47.3002 52.3999L48.1002 52.6999C48.5002 52.8999 48.9002 52.7999 49.3002 52.6999L49.8002 52.4999C50.2002 52.2999 50.7002 52.2999 51.1002 52.4999L51.6002 52.6999C52.0002 52.8999 52.4002 52.8999 52.8002 52.6999L53.0002 52.5999C53.3002 52.3999 53.8002 52.3999 54.1002 52.6999L54.3002 52.8999C54.6002 53.1999 55.1002 53.0999 55.3002 52.6999L55.4002 52.4999C55.5002 52.2999 55.4002 52.1999 55.6002 52.1999C56.1002 52.1999 56.8002 51.8999 56.7002 51.4999L56.3002 50.3999" stroke="#C0C0BF" stroke-linecap="round"/>
<path d="M43.5002 52.2002C43.4002 52.4002 43.2002 53.0002 43.5002 53.3002C43.8002 53.7002 46.5002 54.4002 49.9002 54.4002C52.1002 54.4002 54.5002 54.1002 55.9002 53.8002C56.4002 53.7002 56.8002 53.3002 56.7002 52.9002C56.7002 52.7002 56.5002 52.4002 56.3002 52.2002" stroke="#C0C0BF" stroke-linecap="round"/>
<path d="M43.5 53.2998C43.5 53.7998 44.1 55.5998 44.8 55.9998C46.6 56.7998 50.5 56.6998 52.9 56.4998C54.2 56.3998 55.4 55.7998 56.1 54.6998C56.4 54.1998 56.6 53.6998 56.6 53.2998" stroke="#C0C0BF" stroke-linecap="round"/>
<path d="M51.6003 46.9001C51.766 46.9001 51.9003 46.721 51.9003 46.5001C51.9003 46.2792 51.766 46.1001 51.6003 46.1001C51.4346 46.1001 51.3003 46.2792 51.3003 46.5001C51.3003 46.721 51.4346 46.9001 51.6003 46.9001Z" fill="#C0C0BF"/>
<path d="M53.0002 45.4001C53.1659 45.4001 53.3002 45.221 53.3002 45.0001C53.3002 44.7792 53.1659 44.6001 53.0002 44.6001C52.8345 44.6001 52.7002 44.7792 52.7002 45.0001C52.7002 45.221 52.8345 45.4001 53.0002 45.4001Z" fill="#C0C0BF"/>
<path d="M53.0002 47.5998C53.1659 47.5998 53.3002 47.4207 53.3002 47.1998C53.3002 46.9789 53.1659 46.7998 53.0002 46.7998C52.8345 46.7998 52.7002 46.9789 52.7002 47.1998C52.7002 47.4207 52.8345 47.5998 53.0002 47.5998Z" fill="#C0C0BF"/>
<path d="M54.3 46.9001C54.4657 46.9001 54.6 46.721 54.6 46.5001C54.6 46.2792 54.4657 46.1001 54.3 46.1001C54.1343 46.1001 54 46.2792 54 46.5001C54 46.721 54.1343 46.9001 54.3 46.9001Z" fill="#C0C0BF"/>
<path d="M50.9001 45.4001C51.0658 45.4001 51.2001 45.221 51.2001 45.0001C51.2001 44.7792 51.0658 44.6001 50.9001 44.6001C50.7344 44.6001 50.6001 44.7792 50.6001 45.0001C50.6001 45.221 50.7344 45.4001 50.9001 45.4001Z" fill="#C0C0BF"/>
<path d="M24.2002 50.9999V43.3999C24.3002 43.4999 25.0002 44.2999 27.0002 46.4999C29.5002 44.7999 32.6002 45.7999 33.9002 46.4999L36.3002 43.3999V50.4999C36.3002 51.6999 36.2002 52.9999 35.4002 53.8999C34.4002 55.0999 32.7002 56.3999 30.1002 56.3999C27.2002 56.3999 25.6002 54.8999 24.8002 53.4999C24.2002 52.8999 24.2002 51.9999 24.2002 50.9999Z" stroke="#C0C0BF"/>
<path d="M21.2002 50L26.6002 51.2" stroke="#C0C0BF" stroke-linecap="round"/>
<path d="M21.2002 54.0999L26.6002 52.8999" stroke="#C0C0BF" stroke-linecap="round"/>
<path d="M38.8004 50L33.4004 51.2" stroke="#C0C0BF" stroke-linecap="round"/>
<path d="M38.8004 54.0999L33.4004 52.8999" stroke="#C0C0BF" stroke-linecap="round"/>
<path fill-rule="evenodd" clip-rule="evenodd" d="M29.5003 52.4001L29.0003 51.7001C28.8003 51.4001 29.0003 51.1001 29.3003 51.1001H30.7003C31.0003 51.1001 31.2003 51.5001 31.0003 51.7001L30.3003 52.7001C29.6003 53.9001 27.7003 53.8001 27.2003 52.4001L27.1003 52.2001C27.0003 52.0001 27.1003 51.8001 27.3003 51.7001C27.5003 51.6001 27.7003 51.7001 27.8003 51.9001L27.9003 52.1001C28.3003 52.8001 29.1003 52.9001 29.5003 52.4001Z" fill="#C0C0BF"/>
<path d="M32.4 52.1001L32.3 52.3001C31.9 53.3001 30.5 53.4001 30 52.5001" stroke="#C0C0BF" stroke-linecap="round"/>
<path d="M27.6004 50.4C27.987 50.4 28.3004 50.0866 28.3004 49.7C28.3004 49.3134 27.987 49 27.6004 49C27.2138 49 26.9004 49.3134 26.9004 49.7C26.9004 50.0866 27.2138 50.4 27.6004 50.4Z" fill="#C0C0BF"/>
<path d="M32.4002 50.4C32.7868 50.4 33.1002 50.0866 33.1002 49.7C33.1002 49.3134 32.7868 49 32.4002 49C32.0136 49 31.7002 49.3134 31.7002 49.7C31.7002 50.0866 32.0136 50.4 32.4002 50.4Z" fill="#C0C0BF"/>
<path d="M14.6002 71.2C14.5002 71.1 14.4002 71 14.3002 71H5.7002C5.6002 71 5.5002 71.1 5.4002 71.2C5.3002 71.3 5.3002 71.4 5.4002 71.6C6.1002 73.6 7.9002 74.9 10.0002 74.9C12.1002 74.9 13.9002 73.6 14.6002 71.6C14.7002 71.5 14.7002 71.3 14.6002 71.2ZM10.0002 74.1C8.4002 74.1 7.0002 73.2 6.3002 71.9H13.6002C13.0002 73.2 11.6002 74.1 10.0002 74.1Z" fill="#22D0EE" stroke="#22D0EE" stroke-width="0.1" stroke-miterlimit="10"/>
<path d="M12.8001 69.5002C13.4001 69.5002 13.9001 69.0002 13.9001 68.4002C13.9001 67.8002 13.4001 67.2002 12.8001 67.2002C12.2001 67.2002 11.6001 67.7002 11.6001 68.4002C11.6001 69.0002 12.2001 69.5002 12.8001 69.5002ZM12.8001 68.0002C13.0001 68.0002 13.2001 68.2002 13.2001 68.4002C13.2001 68.6002 13.0001 68.8002 12.8001 68.8002C12.6001 68.8002 12.4001 68.6002 12.4001 68.4002C12.4001 68.1002 12.6001 68.0002 12.8001 68.0002Z" fill="#22D0EE" stroke="#22D0EE" stroke-width="0.1" stroke-miterlimit="10"/>
<path d="M7.2001 69.5002C7.8001 69.5002 8.4001 69.0002 8.4001 68.4002C8.4001 67.8002 7.9001 67.2002 7.2001 67.2002C6.6001 67.2002 6.1001 67.7002 6.1001 68.4002C6.1001 69.0002 6.6001 69.5002 7.2001 69.5002ZM7.2001 68.0002C7.4001 68.0002 7.6001 68.2002 7.6001 68.4002C7.6001 68.6002 7.4001 68.8002 7.2001 68.8002C7.0001 68.8002 6.8001 68.6002 6.8001 68.4002C6.8001 68.1002 7.0001 68.0002 7.2001 68.0002Z" fill="#22D0EE" stroke="#22D0EE" stroke-width="0.1" stroke-miterlimit="10"/>
<path d="M10 63C6.2 63 3 66.1 3 70C3 73.8 6.1 77 10 77C13.9 77 17 73.9 17 70C17 66.2 13.8 63 10 63ZM10 76.2C6.6 76.2 3.8 73.4 3.8 70C3.8 66.6 6.6 63.8 10 63.8C13.4 63.8 16.2 66.6 16.2 70C16.2 73.4 13.4 76.2 10 76.2Z" fill="#22D0EE" stroke="#22D0EE" stroke-width="0.1" stroke-miterlimit="10"/>
<path d="M64.1002 73.3999H66.4002C66.6002 73.3999 66.8002 73.5999 66.8002 73.7999V75.8999C66.8002 76.0999 66.6002 76.2999 66.4002 76.2999H64.1002C63.9002 76.2999 63.7002 76.0999 63.7002 75.8999V73.7999C63.7002 73.5999 63.8002 73.3999 64.1002 73.3999Z" stroke="#22D0EE"/>
<path d="M73.5001 73.5H75.9001C76.1001 73.5 76.3001 73.7 76.3001 73.9V76C76.3001 76.2 76.1001 76.4 75.9001 76.4H73.5001C73.3001 76.4 73.1001 76.2 73.1001 76V73.9C73.1001 73.6 73.3001 73.5 73.5001 73.5Z" stroke="#22D0EE"/>
<path d="M63.7002 68.3999H76.3002V73.3999H63.7002V68.3999Z" stroke="#22D0EE"/>
<path d="M65.5002 63.6001H74.4002C75.4002 63.6001 76.3002 64.4001 76.3002 65.5001V68.6001H63.7002V65.5001C63.7002 64.5001 64.5002 63.6001 65.5002 63.6001Z" stroke="#22D0EE"/>
<path d="M66.2003 71.8C66.6973 71.8 67.1003 71.3971 67.1003 70.9C67.1003 70.4029 66.6973 70 66.2003 70C65.7032 70 65.3003 70.4029 65.3003 70.9C65.3003 71.3971 65.7032 71.8 66.2003 71.8Z" fill="#22D0EE"/>
<path d="M73.8004 71.8C74.2974 71.8 74.7004 71.3971 74.7004 70.9C74.7004 70.4029 74.2974 70 73.8004 70C73.3033 70 72.9004 70.4029 72.9004 70.9C72.9004 71.3971 73.3033 71.8 73.8004 71.8Z" fill="#22D0EE"/>
<path d="M96.4001 70C96.4001 73.6 93.5001 76.5 90.0001 76.5C86.5001 76.5 83.6001 73.6 83.6001 70C83.6001 66.4 86.5001 63.5 90.0001 63.5C93.5001 63.5 96.4001 66.4 96.4001 70Z" stroke="#22D0EE"/>
<path d="M96.3003 68.6V68.7C95.4003 68.8 93.4003 68.8 91.7003 67.5C90.6003 66.7 89.7003 65.8 89.1003 65C88.8003 64.6 88.5003 64.2 88.4003 63.9C88.3003 63.8 88.3003 63.7 88.3003 63.7C88.8003 63.6 89.5003 63.5 90.3003 63.5C91.5003 63.5 92.8003 63.8 93.8003 64.6C94.8003 65.4 95.5003 66.4 95.9003 67.4C96.1003 67.9 96.2003 68.3 96.3003 68.6Z" stroke="#22D0EE"/>
<path d="M84 72.1998V72.0998C84.9 71.8998 86.9 71.6998 88.7 72.6998C89.8 73.3998 90.6 74.1998 91.1 74.9998C91.5 75.4998 91.7 75.9998 91.8 76.2998C91.4 76.3998 90.8 76.4998 90.1 76.5998C89.1 76.5998 88 76.4998 86.9 75.7998C85.8 75.0998 85 74.1998 84.5 73.2998C84.2 72.7998 84.1 72.3998 84 72.1998Z" stroke="#22D0EE"/>
<path d="M113.4 63.9001C113.3 63.8001 113.2 63.8001 113.1 63.8001H111.9L111.6 64.4001C110.9 65.8001 109 65.8001 108.3 64.5001L107.9 63.8001H106.6C106.5 63.8001 106.4 63.8001 106.3 63.9001L103.7 66.8001L105.1 68.8001L105.9 68.0001L106.5 67.3001V68.2001L106.6 76.4001H113.4L113.5 68.2001V67.3001L114.1 68.0001L114.9 68.8001L116.3 66.8001L113.4 63.9001ZM113.4 63.9001L113.7 63.6001" stroke="#22D0EE" stroke-linecap="round"/>
<path d="M110.1 67.7002H112.1V68.6002C112.1 69.0002 111.7 69.3002 111.1 69.3002C110.5 69.3002 110.1 69.0002 110.1 68.6002V67.7002Z" stroke="#22D0EE"/>
<path d="M126.8 74.3001C126.8 75.5001 125.8 76.5001 124.6 76.5001C123.4 76.5001 122.4 75.5001 122.4 74.3001C122.4 73.1001 123.4 72.1001 124.6 72.1001C125.8 72.1001 126.8 73.1001 126.8 74.3001Z" stroke="#22D0EE"/>
<path d="M137.6 74.3001C137.6 75.5001 136.6 76.5001 135.4 76.5001C134.2 76.5001 133.2 75.5001 133.2 74.3001C133.2 73.1001 134.2 72.1001 135.4 72.1001C136.6 72.1001 137.6 73.1001 137.6 74.3001Z" stroke="#22D0EE"/>
<path d="M126.8 64.3999V74.2999" stroke="#22D0EE"/>
<path d="M137.7 64.3999V74.2999" stroke="#22D0EE"/>
<path d="M126.8 63.5H137.6V66.2H126.8V63.5Z" stroke="#22D0EE"/>
<path d="M170.8 63.1001C170.5 63.1001 170.3 63.1001 170 63.1001C167.9 63.1001 166 64.1001 164.7 65.6001H164.6L164.5 65.5001L163.5 64.3001L163.2 67.7001L166.6 68.0001L165.5 66.7001L165.4 66.6001L165.5 66.5001C166.6 65.1001 168.5 64.2001 170.5 64.4001C173.7 64.7001 176 67.5001 175.7 70.7001C175.4 73.7001 172.6 76.0001 169.6 75.8001C166.5 75.6001 164.2 72.9001 164.3 69.8001L163 69.7001C162.8 73.5001 165.6 76.8001 169.3 77.1001C173.2 77.4001 176.6 74.5001 176.9 70.6001C177.2 66.8001 174.4 63.5001 170.8 63.1001Z" fill="#22D0EE"/>
<path d="M170.3 67.4003C170.3 67.1003 170 66.8003 169.7 66.8003C169.4 66.8003 169.1 67.1003 169.1 67.4003V70.6003C169.1 70.8003 169.2 70.9003 169.3 71.0003C169.4 71.1003 169.6 71.2003 169.7 71.2003H172.1C172.5 71.2003 172.7 70.9003 172.7 70.6003C172.7 70.3003 172.4 70.0003 172 70.0003H170.4H170.2V69.8003L170.3 67.4003Z" fill="#22D0EE"/>
<path d="M186.2 63.3999H193.9C195.4 63.3999 196.6 64.5999 196.6 66.0999V73.7999C196.6 75.2999 195.4 76.4999 193.9 76.4999H186.2C184.7 76.4999 183.5 75.2999 183.5 73.7999V66.0999C183.4 64.6999 184.7 63.3999 186.2 63.3999Z" stroke="#22D0EE"/>
<path d="M186 69.5997C186.386 69.5997 186.7 69.2863 186.7 68.8997C186.7 68.5131 186.386 68.1997 186 68.1997C185.613 68.1997 185.3 68.5131 185.3 68.8997C185.3 69.2863 185.613 69.5997 186 69.5997Z" fill="#22D0EE"/>
<path d="M194 67.4C194.386 67.4 194.7 67.0866 194.7 66.7C194.7 66.3134 194.386 66 194 66C193.613 66 193.3 66.3134 193.3 66.7C193.3 67.0866 193.613 67.4 194 67.4Z" fill="#22D0EE"/>
<path d="M186 73.2998L186.4 72.9998C186.8 72.6998 187.4 72.6998 187.9 72.8998L188.9 73.2998C189.4 73.4998 189.9 73.4998 190.4 73.1998L191.2 72.6998C191.6 72.3998 192.2 72.3998 192.7 72.5998L194.5 73.3998" stroke="#22D0EE" stroke-linecap="round"/>
<path d="M156 64.2999C155.8 64.1999 155.6 64.1999 155.5 64.2999C155.5 64.2999 155.3 64.3999 154.6 64.4999C153.9 64.4999 152.2 64.3999 150.8 63.8999C150 63.5999 149.1 63.3999 148.3 63.3999C148.1 63.3999 147.9 63.3999 147.8 63.3999C146.5 63.3999 145.3 63.6999 144.2 64.3999C144 64.4999 144 64.5999 144 64.7999V76.3999C144 76.6999 144.1 76.8999 144.3 76.8999C144.9 76.8999 144.8 76.4999 144.8 76.2999V70.5999C145.5 70.2999 148 69.4999 150.6 70.4999C152.2 71.0999 154.1 71.1999 154.9 71.1999C155.7 71.1999 156.2 70.8999 156.2 70.8999C156.4 70.7999 156.5 70.6999 156.5 70.4999V64.7999C156.2 64.5999 156.1 64.3999 156 64.2999ZM155.6 70.1999C155.5 70.1999 154.9 70.2999 154.6 70.2999C153.9 70.2999 152.2 70.1999 150.8 69.6999C148.3 68.6999 145.8 69.1999 144.6 69.5999V64.6999C145.5 64.1999 146.8 63.9999 147.8 63.9999C147.9 63.9999 148.1 63.9999 148.2 63.9999C148.9 63.9999 149.7 64.1999 150.4 64.3999C152 64.9999 153.9 65.0999 154.7 65.0999C154.9 65.0999 155.5 65.0999 155.7 64.9999V70.1999H155.6Z" fill="#22D0EE" stroke="#22D0EE" stroke-width="0.25" stroke-miterlimit="10"/>
<path d="M48.1001 63.5H51.8001C54.3001 63.5 56.3001 65.5 56.3001 68C56.3001 68.5 55.9001 68.9 55.4001 68.9H44.5001C44.0001 68.9 43.6001 68.5 43.6001 68C43.6001 65.5 45.6001 63.5 48.1001 63.5Z" stroke="#22D0EE"/>
<path d="M43.5002 68.7998C43.3002 68.8998 43.0002 69.9998 43.5002 70.2998C44.9002 71.1998 52.0002 71.0998 54.8002 70.8998C55.6002 70.7998 56.4002 70.4998 56.5002 69.6998C56.5002 69.3998 56.4002 69.0998 55.9002 68.7998" stroke="#22D0EE" stroke-linecap="round"/>
<path d="M43.5002 70.5998L43.3002 70.9998C43.1002 71.4998 43.5002 71.9998 44.0002 71.8998C44.3002 71.7998 44.5002 71.9998 44.7002 72.1998L44.8002 72.3998C45.1002 72.8998 45.8002 72.9998 46.3002 72.5998C46.6002 72.3998 47.0002 72.2998 47.3002 72.3998L48.1002 72.6998C48.5002 72.8998 48.9002 72.7998 49.3002 72.6998L49.8002 72.4998C50.2002 72.2998 50.7002 72.2998 51.1002 72.4998L51.6002 72.6998C52.0002 72.8998 52.4002 72.8998 52.8002 72.5998L53.0002 72.4998C53.3002 72.2998 53.8002 72.2998 54.1002 72.5998L54.3002 72.7998C54.6002 73.0998 55.1002 72.9998 55.3002 72.5998L55.4002 72.3998C55.5002 72.1998 55.4002 72.0998 55.6002 72.0998C56.1002 72.0998 56.8002 71.7998 56.7002 71.3998L56.3002 70.2998" stroke="#22D0EE" stroke-linecap="round"/>
<path d="M43.5002 72.2002C43.4002 72.4002 43.2002 73.0002 43.5002 73.3002C43.8002 73.7002 46.5002 74.4002 49.9002 74.4002C52.1002 74.4002 54.5002 74.1002 55.9002 73.8002C56.4002 73.7002 56.8002 73.4002 56.7002 72.9002C56.7002 72.7002 56.5002 72.4002 56.3002 72.2002" stroke="#22D0EE" stroke-linecap="round"/>
<path d="M43.5 73.2998C43.5 73.7998 44.1 75.5998 44.8 75.9998C46.6 76.7998 50.5 76.6998 52.9 76.4998C54.2 76.3998 55.4 75.7998 56.1 74.6998C56.4 74.1998 56.6 73.6998 56.6 73.2998" stroke="#22D0EE" stroke-linecap="round"/>
<path d="M51.6003 66.9001C51.766 66.9001 51.9003 66.721 51.9003 66.5001C51.9003 66.2792 51.766 66.1001 51.6003 66.1001C51.4346 66.1001 51.3003 66.2792 51.3003 66.5001C51.3003 66.721 51.4346 66.9001 51.6003 66.9001Z" fill="#22D0EE"/>
<path d="M53.0002 65.4001C53.1659 65.4001 53.3002 65.221 53.3002 65.0001C53.3002 64.7792 53.1659 64.6001 53.0002 64.6001C52.8345 64.6001 52.7002 64.7792 52.7002 65.0001C52.7002 65.221 52.8345 65.4001 53.0002 65.4001Z" fill="#22D0EE"/>
<path d="M53.0002 67.5998C53.1659 67.5998 53.3002 67.4207 53.3002 67.1998C53.3002 66.9789 53.1659 66.7998 53.0002 66.7998C52.8345 66.7998 52.7002 66.9789 52.7002 67.1998C52.7002 67.4207 52.8345 67.5998 53.0002 67.5998Z" fill="#22D0EE"/>
<path d="M54.3 66.9001C54.4657 66.9001 54.6 66.721 54.6 66.5001C54.6 66.2792 54.4657 66.1001 54.3 66.1001C54.1343 66.1001 54 66.2792 54 66.5001C54 66.721 54.1343 66.9001 54.3 66.9001Z" fill="#22D0EE"/>
<path d="M50.9001 65.4001C51.0658 65.4001 51.2001 65.221 51.2001 65.0001C51.2001 64.7792 51.0658 64.6001 50.9001 64.6001C50.7344 64.6001 50.6001 64.7792 50.6001 65.0001C50.6001 65.221 50.7344 65.4001 50.9001 65.4001Z" fill="#22D0EE"/>
<path d="M24.2002 70.9999V63.3999C24.3002 63.4999 25.0002 64.2999 27.0002 66.4999C29.5002 64.7999 32.6002 65.7999 33.9002 66.4999L36.3002 63.3999V70.4999C36.3002 71.6999 36.2002 72.9999 35.4002 73.8999C34.4002 75.0999 32.7002 76.3999 30.1002 76.3999C27.2002 76.3999 25.6002 74.8999 24.8002 73.4999C24.2002 72.8999 24.2002 71.9999 24.2002 70.9999Z" stroke="#22D0EE"/>
<path d="M21.2002 70.1001L26.6002 71.3001" stroke="#22D0EE" stroke-linecap="round"/>
<path d="M21.2002 74.0999L26.6002 72.8999" stroke="#22D0EE" stroke-linecap="round"/>
<path d="M38.8004 70.1001L33.4004 71.3001" stroke="#22D0EE" stroke-linecap="round"/>
<path d="M38.8004 74.0999L33.4004 72.8999" stroke="#22D0EE" stroke-linecap="round"/>
<path fill-rule="evenodd" clip-rule="evenodd" d="M29.5003 72.4001L29.0003 71.7001C28.8003 71.4001 29.0003 71.1001 29.3003 71.1001H30.7003C31.0003 71.1001 31.2003 71.5001 31.0003 71.7001L30.3003 72.7001C29.6003 73.9001 27.7003 73.8001 27.2003 72.4001L27.1003 72.2001C27.0003 72.0001 27.1003 71.8001 27.3003 71.7001C27.5003 71.6001 27.7003 71.7001 27.8003 71.9001L27.9003 72.1001C28.3003 72.8001 29.1003 72.9001 29.5003 72.4001Z" fill="#22D0EE"/>
<path d="M32.4 72.1001L32.3 72.3001C31.9 73.3001 30.5 73.4001 30 72.5001" stroke="#22D0EE" stroke-linecap="round"/>
<path d="M27.6004 70.4C27.987 70.4 28.3004 70.0866 28.3004 69.7C28.3004 69.3134 27.987 69 27.6004 69C27.2138 69 26.9004 69.3134 26.9004 69.7C26.9004 70.0866 27.2138 70.4 27.6004 70.4Z" fill="#22D0EE"/>
<path d="M32.4002 70.4C32.7868 70.4 33.1002 70.0866 33.1002 69.7C33.1002 69.3134 32.7868 69 32.4002 69C32.0136 69 31.7002 69.3134 31.7002 69.7C31.7002 70.0866 32.0136 70.4 32.4002 70.4Z" fill="#22D0EE"/>
<path d="M12.8001 9.5002C13.4001 9.5002 13.9001 9.0002 13.9001 8.3002C13.9001 7.7002 13.4001 7.2002 12.8001 7.2002C12.2001 7.2002 11.6001 7.7002 11.6001 8.3002C11.6001 8.9002 12.2001 9.5002 12.8001 9.5002ZM12.8001 7.9002C13.0001 7.9002 13.2001 8.1002 13.2001 8.3002C13.2001 8.5002 13.0001 8.7002 12.8001 8.7002C12.6001 8.7002 12.4001 8.5002 12.4001 8.3002C12.4001 8.1002 12.6001 7.9002 12.8001 7.9002Z" fill="#8B96A5" stroke="#8B96A5" stroke-width="0.1" stroke-miterlimit="10"/>
<path d="M7.2001 9.5002C7.8001 9.5002 8.4001 9.0002 8.4001 8.3002C8.4001 7.7002 7.9001 7.2002 7.2001 7.2002C6.6001 7.2002 6.1001 7.7002 6.1001 8.3002C6.1001 8.9002 6.6001 9.5002 7.2001 9.5002ZM7.2001 7.9002C7.4001 7.9002 7.6001 8.1002 7.6001 8.3002C7.6001 8.5002 7.4001 8.7002 7.2001 8.7002C7.0001 8.7002 6.8001 8.5002 6.8001 8.3002C6.8001 8.1002 7.0001 7.9002 7.2001 7.9002Z" fill="#8B96A5" stroke="#8B96A5" stroke-width="0.1" stroke-miterlimit="10"/>
<path d="M14.6002 11.2C14.5002 11.1 14.4002 11 14.3002 11H5.7002C5.6002 11 5.5002 11.1 5.4002 11.2C5.3002 11.3 5.3002 11.4 5.4002 11.6C6.1002 13.6 7.9002 14.9 10.0002 14.9C12.1002 14.9 13.9002 13.6 14.6002 11.6C14.7002 11.4 14.7002 11.3 14.6002 11.2ZM10.0002 14.1C8.4002 14.1 7.0002 13.2 6.3002 11.9H13.6002C13.0002 13.2 11.6002 14.1 10.0002 14.1Z" fill="#8B96A5" stroke="#8B96A5" stroke-width="0.1" stroke-miterlimit="10"/>
<path d="M10 3C6.2 3 3 6.1 3 10C3 13.9 6.1 17 10 17C13.9 17 17 13.9 17 10C17 6.1 13.8 3 10 3ZM10 16.2C6.6 16.2 3.8 13.4 3.8 10C3.8 6.6 6.6 3.8 10 3.8C13.4 3.8 16.2 6.6 16.2 10C16.2 13.4 13.4 16.2 10 16.2Z" fill="#8B96A5" stroke="#8B96A5" stroke-width="0.1" stroke-miterlimit="10"/>
<path d="M64.1002 13.3999H66.4002C66.6002 13.3999 66.8002 13.5999 66.8002 13.7999V15.8999C66.8002 16.0999 66.6002 16.2999 66.4002 16.2999H64.1002C63.9002 16.2999 63.7002 16.0999 63.7002 15.8999V13.7999C63.7002 13.5999 63.8002 13.3999 64.1002 13.3999Z" stroke="#8B96A5"/>
<path d="M73.5001 13.3999H75.9001C76.1001 13.3999 76.3001 13.5999 76.3001 13.7999V15.8999C76.3001 16.0999 76.1001 16.2999 75.9001 16.2999H73.5001C73.3001 16.2999 73.1001 16.0999 73.1001 15.8999V13.7999C73.1001 13.5999 73.3001 13.3999 73.5001 13.3999Z" stroke="#8B96A5"/>
<path d="M63.7002 8.3999H76.3002V13.3999H63.7002V8.3999Z" stroke="#8B96A5"/>
<path d="M65.5002 3.6001H74.4002C75.4002 3.6001 76.3002 4.4001 76.3002 5.5001V8.6001H63.7002V5.5001C63.7002 4.4001 64.5002 3.6001 65.5002 3.6001Z" stroke="#8B96A5"/>
<path d="M66.2003 11.8C66.6973 11.8 67.1003 11.3971 67.1003 10.9C67.1003 10.4029 66.6973 10 66.2003 10C65.7032 10 65.3003 10.4029 65.3003 10.9C65.3003 11.3971 65.7032 11.8 66.2003 11.8Z" fill="#8B96A5"/>
<path d="M73.8004 11.8C74.2974 11.8 74.7004 11.3971 74.7004 10.9C74.7004 10.4029 74.2974 10 73.8004 10C73.3033 10 72.9004 10.4029 72.9004 10.9C72.9004 11.3971 73.3033 11.8 73.8004 11.8Z" fill="#8B96A5"/>
<path d="M96.4001 10C96.4001 13.6 93.5001 16.5 90.0001 16.5C86.5001 16.5 83.6001 13.6 83.6001 10C83.6001 6.4 86.5001 3.5 90.0001 3.5C93.5001 3.5 96.4001 6.4 96.4001 10Z" stroke="#8B96A5"/>
<path d="M96.3003 8.6V8.7C95.4003 8.8 93.4003 8.8 91.7003 7.5C90.6003 6.7 89.7003 5.8 89.1003 5C88.8003 4.6 88.5003 4.2 88.4003 3.9C88.3003 3.8 88.3003 3.7 88.3003 3.7C88.8003 3.6 89.5003 3.5 90.3003 3.5C91.5003 3.5 92.8003 3.8 93.8003 4.6C94.8003 5.4 95.5003 6.4 95.9003 7.4C96.1003 7.9 96.2003 8.3 96.3003 8.6Z" stroke="#8B96A5"/>
<path d="M84 12.1002V12.0002C84.9 11.8002 86.9 11.6002 88.7 12.6002C89.8 13.2002 90.6 14.1002 91.1 14.9002C91.5 15.4002 91.7 15.9002 91.8 16.2002C91.4 16.3002 90.8 16.4002 90.1 16.5002C89.1 16.5002 88 16.4002 86.9 15.7002C85.8 15.1002 85 14.1002 84.5 13.2002C84.2 12.8002 84.1 12.4002 84 12.1002Z" stroke="#8B96A5"/>
<path d="M113.4 3.9001C113.3 3.8001 113.2 3.8001 113.1 3.8001H111.9L111.6 4.4001C110.9 5.8001 109 5.8001 108.3 4.5001L107.9 3.8001H106.6C106.5 3.8001 106.4 3.8001 106.3 3.9001L103.7 6.8001L105.1 8.8001L105.9 8.0001L106.5 7.3001V8.2001L106.6 16.4001H113.4L113.5 8.2001V7.3001L114.1 8.0001L114.9 8.8001L116.3 6.8001L113.4 3.9001ZM113.4 3.9001L113.7 3.6001" stroke="#8B96A5" stroke-linecap="round"/>
<path d="M110.1 7.7002H112.1V8.6002C112.1 9.0002 111.7 9.3002 111.1 9.3002C110.5 9.3002 110.1 9.0002 110.1 8.6002V7.7002Z" stroke="#8B96A5"/>
<path d="M126.8 14.3001C126.8 15.5001 125.8 16.5001 124.6 16.5001C123.4 16.5001 122.4 15.5001 122.4 14.3001C122.4 13.1001 123.4 12.1001 124.6 12.1001C125.8 12.1001 126.8 13.1001 126.8 14.3001Z" stroke="#8B96A5"/>
<path d="M137.6 14.3001C137.6 15.5001 136.6 16.5001 135.4 16.5001C134.2 16.5001 133.2 15.5001 133.2 14.3001C133.2 13.1001 134.2 12.1001 135.4 12.1001C136.6 12.1001 137.6 13.1001 137.6 14.3001Z" stroke="#8B96A5"/>
<path d="M126.8 4.3999V14.2999" stroke="#8B96A5"/>
<path d="M137.7 4.3999V14.2999" stroke="#8B96A5"/>
<path d="M126.8 3.5H137.6V6.2H126.8V3.5Z" stroke="#8B96A5"/>
<path d="M170.8 3.1001C170.5 3.1001 170.3 3.1001 170 3.1001C167.9 3.1001 166 4.1001 164.7 5.6001H164.6L164.5 5.5001L163.5 4.3001L163.2 7.7001L166.6 8.0001L165.5 6.7001L165.4 6.6001L165.5 6.5001C166.6 5.1001 168.5 4.2001 170.5 4.4001C173.7 4.7001 176 7.5001 175.7 10.7001C175.4 13.7001 172.6 16.0001 169.6 15.8001C166.5 15.6001 164.2 12.9001 164.3 9.8001L163 9.5001C162.8 13.3001 165.6 16.6001 169.3 16.9001C173.2 17.3001 176.6 14.3001 176.9 10.4001C177.2 6.8001 174.4 3.5001 170.8 3.1001Z" fill="#8B96A5"/>
<path d="M170.3 7.40029C170.3 7.10029 170 6.80029 169.7 6.80029C169.4 6.80029 169 7.10029 169 7.40029V10.6003C169 10.8003 169.1 10.9003 169.2 11.0003C169.3 11.1003 169.5 11.2003 169.6 11.2003H172C172.4 11.2003 172.6 10.9003 172.6 10.6003C172.6 10.3003 172.3 10.0003 172 10.0003H170.4H170.2V9.80029L170.3 7.40029Z" fill="#8B96A5"/>
<path d="M186.2 3.3999H193.9C195.4 3.3999 196.6 4.5999 196.6 6.0999V13.7999C196.6 15.2999 195.4 16.4999 193.9 16.4999H186.2C184.7 16.4999 183.5 15.2999 183.5 13.7999V6.0999C183.4 4.5999 184.7 3.3999 186.2 3.3999Z" stroke="#8B96A5"/>
<path d="M186 9.59971C186.386 9.59971 186.7 9.28631 186.7 8.89971C186.7 8.51311 186.386 8.19971 186 8.19971C185.613 8.19971 185.3 8.51311 185.3 8.89971C185.3 9.28631 185.613 9.59971 186 9.59971Z" fill="#8B96A5"/>
<path d="M194 7.4C194.386 7.4 194.7 7.0866 194.7 6.7C194.7 6.3134 194.386 6 194 6C193.613 6 193.3 6.3134 193.3 6.7C193.3 7.0866 193.613 7.4 194 7.4Z" fill="#8B96A5"/>
<path d="M186 13.2998L186.4 12.9998C186.8 12.6998 187.4 12.6998 187.9 12.8998L188.9 13.2998C189.4 13.4998 189.9 13.4998 190.4 13.1998L191.2 12.6998C191.6 12.3998 192.2 12.3998 192.7 12.5998L194.5 13.3998" stroke="#8B96A5" stroke-linecap="round"/>
<path d="M156 4.2998C155.8 4.1998 155.6 4.1998 155.5 4.2998C155.5 4.2998 155.3 4.3998 154.6 4.3998C153.9 4.3998 152.2 4.2998 150.8 3.7998C150 3.4998 149.1 3.2998 148.3 3.2998C148.1 3.2998 147.9 3.2998 147.8 3.2998C146.5 3.2998 145.3 3.5998 144.2 4.2998C144 4.3998 144 4.4998 144 4.6998V16.2998C144 16.5998 144.1 16.7998 144.3 16.7998C144.9 16.7998 144.8 16.3998 144.8 16.1998V10.4998C145.5 10.1998 148 9.3998 150.6 10.3998C152.2 10.9998 154.1 11.0998 154.9 11.0998C155.7 11.0998 156.2 10.7998 156.2 10.7998C156.4 10.6998 156.5 10.5998 156.5 10.3998V4.6998C156.2 4.4998 156.1 4.3998 156 4.2998ZM155.6 10.1998C155.5 10.1998 154.9 10.2998 154.6 10.2998C153.9 10.2998 152.2 10.1998 150.8 9.6998C148.3 8.6998 145.8 9.1998 144.6 9.5998V4.6998C145.5 4.1998 146.8 3.9998 147.8 3.9998C147.9 3.9998 148.1 3.9998 148.2 3.9998C148.9 3.9998 149.7 4.1998 150.4 4.3998C152 4.9998 153.9 5.0998 154.7 5.0998C154.9 5.0998 155.5 5.0998 155.7 4.9998V10.1998H155.6Z" fill="#8B96A5" stroke="#8B96A5" stroke-width="0.25" stroke-miterlimit="10"/>
<path d="M48.1001 3.5H51.8001C54.3001 3.5 56.3001 5.5 56.3001 8C56.3001 8.5 55.9001 8.9 55.4001 8.9H44.5001C44.0001 8.9 43.6001 8.5 43.6001 8C43.6001 5.5 45.6001 3.5 48.1001 3.5Z" stroke="#8B96A5"/>
<path d="M43.5002 8.7002C43.3002 8.8002 43.0002 9.9002 43.5002 10.2002C44.9002 11.1002 52.0002 11.0002 54.8002 10.8002C55.6002 10.7002 56.4002 10.4002 56.5002 9.6002C56.5002 9.3002 56.4002 9.0002 55.9002 8.7002" stroke="#8B96A5" stroke-linecap="round"/>
<path d="M43.5002 10.6002L43.3002 11.0002C43.1002 11.5002 43.5002 12.0002 44.0002 11.9002C44.3002 11.8002 44.5002 12.0002 44.7002 12.2002L44.8002 12.4002C45.1002 12.9002 45.8002 13.0002 46.3002 12.6002C46.6002 12.4002 47.0002 12.3002 47.3002 12.4002L48.1002 12.7002C48.5002 12.8002 48.9002 12.8002 49.3002 12.7002L49.8002 12.5002C50.2002 12.3002 50.7002 12.3002 51.1002 12.5002L51.6002 12.7002C52.0002 12.9002 52.4002 12.8002 52.8002 12.6002L53.0002 12.5002C53.3002 12.3002 53.8002 12.4002 54.1002 12.6002L54.3002 12.8002C54.6002 13.1002 55.1002 13.0002 55.3002 12.6002L55.4002 12.4002C55.5002 12.2002 55.4002 12.1002 55.6002 12.0002C56.1002 12.0002 56.8002 11.7002 56.7002 11.3002L56.3002 10.2002" stroke="#8B96A5" stroke-linecap="round"/>
<path d="M43.5002 12.1001C43.4002 12.3001 43.2002 12.9001 43.5002 13.2001C43.8002 13.6001 46.5002 14.3001 49.9002 14.3001C52.1002 14.3001 54.5002 14.0001 55.9002 13.7001C56.4002 13.6001 56.8002 13.3001 56.7002 12.8001C56.7002 12.6001 56.5002 12.3001 56.3002 12.1001" stroke="#8B96A5" stroke-linecap="round"/>
<path d="M43.5 13.3002C43.5 13.8002 44.1 15.7002 44.8 15.9002C46.6 16.7002 50.5 16.6002 52.9 16.4002C54.2 16.3002 55.4 15.7002 56.1 14.6002C56.4 14.1002 56.6 13.6002 56.6 13.2002" stroke="#8B96A5" stroke-linecap="round"/>
<path d="M51.6003 6.9001C51.766 6.9001 51.9003 6.72101 51.9003 6.5001C51.9003 6.27918 51.766 6.1001 51.6003 6.1001C51.4346 6.1001 51.3003 6.27918 51.3003 6.5001C51.3003 6.72101 51.4346 6.9001 51.6003 6.9001Z" fill="#8B96A5"/>
<path d="M53.0002 5.3C53.1659 5.3 53.3002 5.12091 53.3002 4.9C53.3002 4.67909 53.1659 4.5 53.0002 4.5C52.8345 4.5 52.7002 4.67909 52.7002 4.9C52.7002 5.12091 52.8345 5.3 53.0002 5.3Z" fill="#8B96A5"/>
<path d="M53.0002 7.5998C53.1659 7.5998 53.3002 7.42072 53.3002 7.1998C53.3002 6.97889 53.1659 6.7998 53.0002 6.7998C52.8345 6.7998 52.7002 6.97889 52.7002 7.1998C52.7002 7.42072 52.8345 7.5998 53.0002 7.5998Z" fill="#8B96A5"/>
<path d="M54.3 6.9001C54.4657 6.9001 54.6 6.72101 54.6 6.5001C54.6 6.27918 54.4657 6.1001 54.3 6.1001C54.1343 6.1001 54 6.27918 54 6.5001C54 6.72101 54.1343 6.9001 54.3 6.9001Z" fill="#8B96A5"/>
<path d="M50.9001 5.3C51.0658 5.3 51.2001 5.12091 51.2001 4.9C51.2001 4.67909 51.0658 4.5 50.9001 4.5C50.7344 4.5 50.6001 4.67909 50.6001 4.9C50.6001 5.12091 50.7344 5.3 50.9001 5.3Z" fill="#8B96A5"/>
<path d="M24.2002 11V3.5C24.3002 3.6 25.0002 4.4 27.0002 6.6C29.5002 4.9 32.6002 5.9 33.9002 6.6L36.3002 3.5V10.6C36.3002 11.8 36.2002 13.1 35.4002 14C34.4002 15.2 32.7002 16.5 30.1002 16.5C27.2002 16.5 25.6002 15 24.8002 13.6C24.2002 12.9 24.2002 11.9 24.2002 11Z" stroke="#8B96A5"/>
<path d="M21.2002 10L26.6002 11.2" stroke="#8B96A5" stroke-linecap="round"/>
<path d="M21.2002 14.0999L26.6002 12.8999" stroke="#8B96A5" stroke-linecap="round"/>
<path d="M38.8004 10L33.4004 11.2" stroke="#8B96A5" stroke-linecap="round"/>
<path d="M38.8004 14.0999L33.4004 12.8999" stroke="#8B96A5" stroke-linecap="round"/>
<path fill-rule="evenodd" clip-rule="evenodd" d="M29.5003 12.4001L29.0003 11.7001C28.8003 11.4001 29.0003 11.1001 29.3003 11.1001H30.7003C31.0003 11.1001 31.2003 11.5001 31.0003 11.7001L30.3003 12.7001C29.6003 13.9001 27.7003 13.8001 27.2003 12.4001L27.1003 12.2001C27.0003 12.0001 27.1003 11.8001 27.3003 11.7001C27.5003 11.6001 27.7003 11.7001 27.8003 11.9001L27.9003 12.1001C28.3003 12.7001 29.1003 12.9001 29.5003 12.4001Z" fill="#8B96A5"/>
<path d="M32.4 12.1001L32.3 12.3001C31.9 13.3001 30.5 13.4001 30 12.5001" stroke="#8B96A5" stroke-linecap="round"/>
<path d="M27.6004 10.4C27.987 10.4 28.3004 10.0866 28.3004 9.7C28.3004 9.3134 27.987 9 27.6004 9C27.2138 9 26.9004 9.3134 26.9004 9.7C26.9004 10.0866 27.2138 10.4 27.6004 10.4Z" fill="#8B96A5"/>
<path d="M32.4002 10.4C32.7868 10.4 33.1002 10.0866 33.1002 9.7C33.1002 9.3134 32.7868 9 32.4002 9C32.0136 9 31.7002 9.3134 31.7002 9.7C31.7002 10.0866 32.0136 10.4 32.4002 10.4Z" fill="#8B96A5"/>
</svg>