<svg xmlns="http://www.w3.org/2000/svg" width="120" height="120" viewBox="0 0 120 120" fill="none">
<g clip-path="url(#clip0_1_40)">
<mask id="path-1-inside-1_1_40" fill="white">
<path d="M52.0642 22.0183C51.4138 22.0668 51.1417 22.0895 51.017 22.1058C50.9498 22.1146 50.8071 22.1301 50.6999 22.1404C50.5927 22.1506 50.4719 22.1653 50.4313 22.1731C50.3908 22.1809 50.2508 22.197 50.1201 22.2089C49.9895 22.2208 49.8405 22.2386 49.789 22.2484C49.7376 22.2583 49.6434 22.2728 49.5796 22.2808C49.5159 22.2888 49.4244 22.3035 49.3764 22.3135C49.3284 22.3234 49.2263 22.3402 49.1495 22.3509C48.8078 22.398 48.5563 22.4456 47.7533 22.6149L47.7259 22.6207C47.6223 22.6425 47.5352 22.6609 47.5264 22.6627C47.406 22.688 47.2222 22.729 47.1948 22.7366C47.1267 22.7558 46.9841 22.7892 46.8981 22.8063C46.8501 22.8158 46.748 22.8413 46.6712 22.8628C46.4747 22.9179 46.4697 22.9192 46.3918 22.9368C46.3534 22.9455 46.2591 22.9696 46.1824 22.9902C46.1056 23.0109 46.031 23.028 46.0166 23.0284C46.002 23.0287 45.9353 23.0519 45.8682 23.08C45.8011 23.108 45.7462 23.1246 45.7462 23.1168C45.7462 23.1091 45.6794 23.1268 45.5978 23.1561C45.5163 23.1856 45.4246 23.2149 45.3941 23.2213C45.3212 23.2367 44.0734 23.6517 43.9835 23.6904C43.9451 23.707 43.8351 23.7477 43.7391 23.781C43.6431 23.8143 43.5174 23.8612 43.4598 23.8854C43.4022 23.9096 43.2609 23.9651 43.1457 24.0086C43.0305 24.0522 42.9213 24.1011 42.9031 24.1173C42.8849 24.1335 42.8499 24.1468 42.8255 24.1468C42.8011 24.1468 42.6982 24.185 42.5969 24.2317C42.4956 24.2784 42.3027 24.3637 42.1683 24.4212C40.1903 25.2674 37.8008 26.6999 36.0074 28.1146C35.8179 28.2641 35.3191 28.6714 35.2434 28.7385C35.1446 28.826 35.1079 28.8576 34.7998 29.1209C34.4267 29.4397 34.1818 29.6729 33.4246 30.4299C32.6747 31.1795 32.5016 31.3601 32.1867 31.7213C32.0947 31.827 31.9782 31.9603 31.9278 32.0177C31.773 32.1942 31.457 32.5758 31.3649 32.6973C31.317 32.7607 31.2305 32.8678 31.1729 32.9352C31.1154 33.0026 30.9153 33.2636 30.7284 33.5153C30.5415 33.7669 30.3725 33.992 30.3528 34.0154C30.2795 34.1025 29.4451 35.3461 29.4451 35.3682C29.4451 35.3808 29.4058 35.4426 29.3578 35.5055C29.3098 35.5685 29.2706 35.6295 29.2706 35.6411C29.2706 35.6527 29.2251 35.7298 29.1696 35.8124C28.934 36.1626 28.358 37.2096 27.9635 38.0044C27.3261 39.289 26.8694 40.3927 26.4319 41.7064C26.2567 42.2325 25.9479 43.2751 25.9052 43.4847C25.8954 43.5327 25.8569 43.6862 25.8195 43.8258C25.7822 43.9655 25.7518 44.0833 25.752 44.0876C25.7523 44.092 25.7361 44.1584 25.7161 44.2352C25.6961 44.312 25.6715 44.4219 25.6614 44.4795C25.6513 44.5371 25.628 44.647 25.6095 44.7238C25.591 44.8006 25.5671 44.9184 25.5564 44.9856C25.5364 45.1106 25.532 45.1329 25.4717 45.4045C25.4525 45.4909 25.4276 45.6323 25.4164 45.7186C25.4051 45.8051 25.3883 45.9144 25.3791 45.9616C25.3699 46.0088 25.3529 46.1106 25.3414 46.1878C25.3299 46.2649 25.3154 46.3362 25.3093 46.3463C25.3031 46.3562 25.2879 46.4508 25.2756 46.5564C25.2631 46.662 25.2474 46.7877 25.2405 46.8356C25.2337 46.8837 25.2186 47.0015 25.2071 47.0974C25.1955 47.1934 25.1785 47.327 25.1694 47.3941C25.1314 47.672 25.0823 48.182 25.0215 48.93C25.0115 49.0537 25.0043 51.3712 25 54.6312C25.001 54.7824 25.0021 55.2997 25.0033 56.2166C25.0082 60.0419 25.0082 66.3014 25.0033 70.1268C25.0022 70.9843 25.0012 71.4925 25.0002 71.6783C25.0046 74.9005 25.0118 77.159 25.0219 77.2037C25.1675 77.8569 25.4283 78.328 25.9025 78.7953C26.3068 79.1935 26.9041 79.5165 27.3892 79.5989C27.4736 79.6137 33.708 79.6304 41.2433 79.6366C54.2069 79.6475 55.3712 79.6413 56.2005 79.5575C56.4788 79.5294 56.6752 79.5108 56.8812 79.4937C56.9868 79.4851 57.1203 79.4684 57.1779 79.4575C57.2355 79.446 57.3847 79.4289 57.5095 79.4189C57.6343 79.4089 57.7757 79.3908 57.8237 79.3789C57.8717 79.3669 57.9502 79.3531 57.9982 79.3484C58.0462 79.3431 58.1483 79.3293 58.2251 79.3174C58.3019 79.3055 58.4197 79.2874 58.4869 79.2779C58.5541 79.2679 58.6539 79.2536 58.7087 79.2455C58.7635 79.2374 58.8401 79.2207 58.879 79.2083C58.9179 79.1959 58.9909 79.1826 59.0412 79.1783C59.0915 79.174 59.2583 79.1435 59.4119 79.1111C59.7412 79.0416 60.0679 78.972 60.0926 78.9673C60.3336 78.9168 60.439 78.8906 60.4504 78.8791C60.4552 78.8744 60.4905 78.8658 60.5289 78.8596C60.6555 78.8401 60.8061 78.8067 60.9477 78.7667C61.0245 78.7448 61.0992 78.7238 61.1136 78.7205C61.128 78.7167 61.1515 78.7091 61.1659 78.7038C61.1803 78.6986 61.2078 78.6915 61.227 78.6886C61.3653 78.6657 61.5132 78.6214 61.5507 78.5909C61.5752 78.5714 61.6047 78.5647 61.6162 78.5762C61.6278 78.5876 61.6903 78.5752 61.755 78.5481C61.8198 78.5209 61.8728 78.5052 61.8728 78.5133C61.8728 78.5209 61.9395 78.5033 62.0211 78.4738C62.1027 78.4442 62.1944 78.4152 62.2248 78.4085C62.2978 78.3932 63.5455 77.9783 63.6355 77.9393C63.6739 77.9231 63.7839 77.8821 63.8799 77.8488C63.9758 77.8154 64.1015 77.7687 64.1591 77.7444C64.2167 77.7201 64.3581 77.6649 64.4733 77.621C64.5885 77.5777 64.6976 77.5286 64.7158 77.5124C64.7341 77.4962 64.769 77.4829 64.7934 77.4829C64.8179 77.4829 64.9208 77.4448 65.0221 77.3981C65.1234 77.3514 65.3163 77.2661 65.4506 77.2085C67.4286 76.3625 69.8182 74.93 71.6115 73.5152C71.801 73.3656 72.2999 72.9583 72.3755 72.8916C72.4743 72.804 72.511 72.7721 72.8192 72.5091C73.1922 72.1899 73.437 71.957 74.1945 71.2C74.9443 70.4502 75.1172 70.2697 75.4321 69.9086C75.524 69.8029 75.6407 69.6695 75.6912 69.6121C75.846 69.4357 76.1619 69.0541 76.2538 68.9326C76.3019 68.8692 76.3886 68.7621 76.4458 68.6947C76.5034 68.6273 76.7035 68.3663 76.8907 68.1146C77.0775 67.8629 77.2466 67.6379 77.2661 67.6145C77.3395 67.5274 78.1741 66.2838 78.1741 66.2617C78.1741 66.2491 78.2131 66.1872 78.2612 66.1243C78.3089 66.0614 78.3484 66.0004 78.3484 65.9888C78.3484 65.9772 78.3937 65.9001 78.4494 65.8175C79.0292 64.9555 80.2372 62.5206 80.706 61.2693C81.0961 60.2283 81.4267 59.2309 81.5973 58.5815C81.753 57.9889 81.9117 57.3554 81.9288 57.258C81.9388 57.202 81.9526 57.1467 81.9598 57.1351C81.9669 57.1235 81.9831 57.044 81.996 56.9584C82.0089 56.8728 82.0251 56.7932 82.0322 56.7815C82.0508 56.7516 82.2575 55.6202 82.3095 55.2654C82.3204 55.1887 82.3442 55.0316 82.3619 54.9164C82.3795 54.8012 82.4033 54.6127 82.4147 54.4975C82.4262 54.3823 82.4414 54.2567 82.4495 54.2183C82.4571 54.1799 82.4733 54.0542 82.4848 53.939C82.4967 53.8239 82.5124 53.6746 82.5205 53.6074C82.5286 53.5402 82.5448 53.3439 82.5572 53.1711C82.5691 52.9983 82.5843 52.8255 82.5905 52.7871C82.5967 52.7487 82.6067 52.5917 82.6129 52.438L82.6067 49.4536C82.6067 49.4536 82.6139 49.3897 82.6086 49.2093C82.6053 49.0845 82.5972 48.9274 82.5905 48.8602C82.5838 48.793 82.5681 48.6045 82.5562 48.4413C82.5438 48.2781 82.5267 48.0818 82.5181 48.005C82.509 47.9282 82.4952 47.8026 82.4862 47.7257C82.4162 47.0992 82.3533 46.6185 82.3109 46.3819C82.3018 46.3339 82.2861 46.2312 82.2756 46.1536C82.2651 46.076 82.2489 45.9739 82.2399 45.9267C82.2308 45.8795 82.2132 45.7859 82.2008 45.7186L82.1694 45.5441C82.1499 45.4365 82.005 44.7193 81.9788 44.6017C81.9641 44.5345 81.9264 44.3606 81.8955 44.2152C81.6492 43.0677 80.8842 40.7014 80.4554 39.7607C80.4102 39.6612 80.373 39.5713 80.373 39.5609C80.373 39.5506 80.3349 39.4593 80.2887 39.358C80.2425 39.2567 80.1305 39.0089 80.04 38.8073C79.1897 36.9146 77.8401 34.6992 76.5096 33.0129C76.3605 32.8234 75.9532 32.3246 75.8861 32.2489C75.7984 32.1501 75.767 32.1134 75.5035 31.8053C75.1848 31.4321 74.9514 31.1873 74.1945 30.43C73.4451 29.6802 73.2646 29.5071 72.903 29.1922C72.7973 29.1002 72.6639 28.9836 72.6067 28.9332C72.4302 28.7785 72.0487 28.4624 71.9271 28.3704C71.8637 28.3224 71.7566 28.236 71.6892 28.1784C71.6218 28.1208 71.3608 27.9208 71.1092 27.7339C70.8575 27.547 70.6325 27.3779 70.6091 27.3583C70.5219 27.285 69.2783 26.4506 69.2562 26.4506C69.2436 26.4506 69.1818 26.4113 69.1188 26.3633C69.0559 26.3153 68.9949 26.276 68.9833 26.276C68.9717 26.276 68.8946 26.2306 68.8121 26.1751C68.4922 25.9599 67.4521 25.3835 66.7474 25.0307C65.4432 24.3779 64.3282 23.9111 63.0247 23.4723C62.4469 23.2779 61.4534 22.9813 61.1921 22.9253C61.1153 22.9088 60.9661 22.8714 60.8605 22.8421C60.7549 22.8129 60.6241 22.7811 60.5698 22.7715C60.5156 22.762 60.4214 22.7385 60.3604 22.7193C60.2995 22.7002 60.2025 22.6762 60.1449 22.666C60.0873 22.6557 59.9617 22.631 59.8657 22.6109C59.7697 22.5908 59.6519 22.5671 59.6039 22.5581C59.5165 22.5418 59.4921 22.537 59.1675 22.4725C59.0716 22.4534 58.942 22.4296 58.8796 22.4196C58.8172 22.4096 58.7151 22.3929 58.6527 22.3825C58.5903 22.372 58.4921 22.3558 58.4345 22.3463C58.3769 22.3369 58.3062 22.323 58.2774 22.3154C58.2486 22.3078 58.1366 22.2921 58.0284 22.2805C57.9202 22.2689 57.7946 22.2522 57.7492 22.2434C57.7037 22.2346 57.5802 22.2186 57.4746 22.2077C57.369 22.1969 57.2433 22.1811 57.1954 22.1727C57.1474 22.1642 57.0295 22.1493 56.9336 22.1396C56.8376 22.1298 56.6884 22.1145 56.602 22.1055C56.5155 22.0965 56.3271 22.0802 56.1831 22.0693C56.0391 22.0583 55.8349 22.0404 55.7293 22.0294C55.4212 21.9973 52.4661 21.9884 52.0642 22.0183Z"/>
</mask>
<path d="M52.0642 22.0183C51.4138 22.0668 51.1417 22.0895 51.017 22.1058C50.9498 22.1146 50.8071 22.1301 50.6999 22.1404C50.5927 22.1506 50.4719 22.1653 50.4313 22.1731C50.3908 22.1809 50.2508 22.197 50.1201 22.2089C49.9895 22.2208 49.8405 22.2386 49.789 22.2484C49.7376 22.2583 49.6434 22.2728 49.5796 22.2808C49.5159 22.2888 49.4244 22.3035 49.3764 22.3135C49.3284 22.3234 49.2263 22.3402 49.1495 22.3509C48.8078 22.398 48.5563 22.4456 47.7533 22.6149L47.7259 22.6207C47.6223 22.6425 47.5352 22.6609 47.5264 22.6627C47.406 22.688 47.2222 22.729 47.1948 22.7366C47.1267 22.7558 46.9841 22.7892 46.8981 22.8063C46.8501 22.8158 46.748 22.8413 46.6712 22.8628C46.4747 22.9179 46.4697 22.9192 46.3918 22.9368C46.3534 22.9455 46.2591 22.9696 46.1824 22.9902C46.1056 23.0109 46.031 23.028 46.0166 23.0284C46.002 23.0287 45.9353 23.0519 45.8682 23.08C45.8011 23.108 45.7462 23.1246 45.7462 23.1168C45.7462 23.1091 45.6794 23.1268 45.5978 23.1561C45.5163 23.1856 45.4246 23.2149 45.3941 23.2213C45.3212 23.2367 44.0734 23.6517 43.9835 23.6904C43.9451 23.707 43.8351 23.7477 43.7391 23.781C43.6431 23.8143 43.5174 23.8612 43.4598 23.8854C43.4022 23.9096 43.2609 23.9651 43.1457 24.0086C43.0305 24.0522 42.9213 24.1011 42.9031 24.1173C42.8849 24.1335 42.8499 24.1468 42.8255 24.1468C42.8011 24.1468 42.6982 24.185 42.5969 24.2317C42.4956 24.2784 42.3027 24.3637 42.1683 24.4212C40.1903 25.2674 37.8008 26.6999 36.0074 28.1146C35.8179 28.2641 35.3191 28.6714 35.2434 28.7385C35.1446 28.826 35.1079 28.8576 34.7998 29.1209C34.4267 29.4397 34.1818 29.6729 33.4246 30.4299C32.6747 31.1795 32.5016 31.3601 32.1867 31.7213C32.0947 31.827 31.9782 31.9603 31.9278 32.0177C31.773 32.1942 31.457 32.5758 31.3649 32.6973C31.317 32.7607 31.2305 32.8678 31.1729 32.9352C31.1154 33.0026 30.9153 33.2636 30.7284 33.5153C30.5415 33.7669 30.3725 33.992 30.3528 34.0154C30.2795 34.1025 29.4451 35.3461 29.4451 35.3682C29.4451 35.3808 29.4058 35.4426 29.3578 35.5055C29.3098 35.5685 29.2706 35.6295 29.2706 35.6411C29.2706 35.6527 29.2251 35.7298 29.1696 35.8124C28.934 36.1626 28.358 37.2096 27.9635 38.0044C27.3261 39.289 26.8694 40.3927 26.4319 41.7064C26.2567 42.2325 25.9479 43.2751 25.9052 43.4847C25.8954 43.5327 25.8569 43.6862 25.8195 43.8258C25.7822 43.9655 25.7518 44.0833 25.752 44.0876C25.7523 44.092 25.7361 44.1584 25.7161 44.2352C25.6961 44.312 25.6715 44.4219 25.6614 44.4795C25.6513 44.5371 25.628 44.647 25.6095 44.7238C25.591 44.8006 25.5671 44.9184 25.5564 44.9856C25.5364 45.1106 25.532 45.1329 25.4717 45.4045C25.4525 45.4909 25.4276 45.6323 25.4164 45.7186C25.4051 45.8051 25.3883 45.9144 25.3791 45.9616C25.3699 46.0088 25.3529 46.1106 25.3414 46.1878C25.3299 46.2649 25.3154 46.3362 25.3093 46.3463C25.3031 46.3562 25.2879 46.4508 25.2756 46.5564C25.2631 46.662 25.2474 46.7877 25.2405 46.8356C25.2337 46.8837 25.2186 47.0015 25.2071 47.0974C25.1955 47.1934 25.1785 47.327 25.1694 47.3941C25.1314 47.672 25.0823 48.182 25.0215 48.93C25.0115 49.0537 25.0043 51.3712 25 54.6312C25.001 54.7824 25.0021 55.2997 25.0033 56.2166C25.0082 60.0419 25.0082 66.3014 25.0033 70.1268C25.0022 70.9843 25.0012 71.4925 25.0002 71.6783C25.0046 74.9005 25.0118 77.159 25.0219 77.2037C25.1675 77.8569 25.4283 78.328 25.9025 78.7953C26.3068 79.1935 26.9041 79.5165 27.3892 79.5989C27.4736 79.6137 33.708 79.6304 41.2433 79.6366C54.2069 79.6475 55.3712 79.6413 56.2005 79.5575C56.4788 79.5294 56.6752 79.5108 56.8812 79.4937C56.9868 79.4851 57.1203 79.4684 57.1779 79.4575C57.2355 79.446 57.3847 79.4289 57.5095 79.4189C57.6343 79.4089 57.7757 79.3908 57.8237 79.3789C57.8717 79.3669 57.9502 79.3531 57.9982 79.3484C58.0462 79.3431 58.1483 79.3293 58.2251 79.3174C58.3019 79.3055 58.4197 79.2874 58.4869 79.2779C58.5541 79.2679 58.6539 79.2536 58.7087 79.2455C58.7635 79.2374 58.8401 79.2207 58.879 79.2083C58.9179 79.1959 58.9909 79.1826 59.0412 79.1783C59.0915 79.174 59.2583 79.1435 59.4119 79.1111C59.7412 79.0416 60.0679 78.972 60.0926 78.9673C60.3336 78.9168 60.439 78.8906 60.4504 78.8791C60.4552 78.8744 60.4905 78.8658 60.5289 78.8596C60.6555 78.8401 60.8061 78.8067 60.9477 78.7667C61.0245 78.7448 61.0992 78.7238 61.1136 78.7205C61.128 78.7167 61.1515 78.7091 61.1659 78.7038C61.1803 78.6986 61.2078 78.6915 61.227 78.6886C61.3653 78.6657 61.5132 78.6214 61.5507 78.5909C61.5752 78.5714 61.6047 78.5647 61.6162 78.5762C61.6278 78.5876 61.6903 78.5752 61.755 78.5481C61.8198 78.5209 61.8728 78.5052 61.8728 78.5133C61.8728 78.5209 61.9395 78.5033 62.0211 78.4738C62.1027 78.4442 62.1944 78.4152 62.2248 78.4085C62.2978 78.3932 63.5455 77.9783 63.6355 77.9393C63.6739 77.9231 63.7839 77.8821 63.8799 77.8488C63.9758 77.8154 64.1015 77.7687 64.1591 77.7444C64.2167 77.7201 64.3581 77.6649 64.4733 77.621C64.5885 77.5777 64.6976 77.5286 64.7158 77.5124C64.7341 77.4962 64.769 77.4829 64.7934 77.4829C64.8179 77.4829 64.9208 77.4448 65.0221 77.3981C65.1234 77.3514 65.3163 77.2661 65.4506 77.2085C67.4286 76.3625 69.8182 74.93 71.6115 73.5152C71.801 73.3656 72.2999 72.9583 72.3755 72.8916C72.4743 72.804 72.511 72.7721 72.8192 72.5091C73.1922 72.1899 73.437 71.957 74.1945 71.2C74.9443 70.4502 75.1172 70.2697 75.4321 69.9086C75.524 69.8029 75.6407 69.6695 75.6912 69.6121C75.846 69.4357 76.1619 69.0541 76.2538 68.9326C76.3019 68.8692 76.3886 68.7621 76.4458 68.6947C76.5034 68.6273 76.7035 68.3663 76.8907 68.1146C77.0775 67.8629 77.2466 67.6379 77.2661 67.6145C77.3395 67.5274 78.1741 66.2838 78.1741 66.2617C78.1741 66.2491 78.2131 66.1872 78.2612 66.1243C78.3089 66.0614 78.3484 66.0004 78.3484 65.9888C78.3484 65.9772 78.3937 65.9001 78.4494 65.8175C79.0292 64.9555 80.2372 62.5206 80.706 61.2693C81.0961 60.2283 81.4267 59.2309 81.5973 58.5815C81.753 57.9889 81.9117 57.3554 81.9288 57.258C81.9388 57.202 81.9526 57.1467 81.9598 57.1351C81.9669 57.1235 81.9831 57.044 81.996 56.9584C82.0089 56.8728 82.0251 56.7932 82.0322 56.7815C82.0508 56.7516 82.2575 55.6202 82.3095 55.2654C82.3204 55.1887 82.3442 55.0316 82.3619 54.9164C82.3795 54.8012 82.4033 54.6127 82.4147 54.4975C82.4262 54.3823 82.4414 54.2567 82.4495 54.2183C82.4571 54.1799 82.4733 54.0542 82.4848 53.939C82.4967 53.8239 82.5124 53.6746 82.5205 53.6074C82.5286 53.5402 82.5448 53.3439 82.5572 53.1711C82.5691 52.9983 82.5843 52.8255 82.5905 52.7871C82.5967 52.7487 82.6067 52.5917 82.6129 52.438L82.6067 49.4536C82.6067 49.4536 82.6139 49.3897 82.6086 49.2093C82.6053 49.0845 82.5972 48.9274 82.5905 48.8602C82.5838 48.793 82.5681 48.6045 82.5562 48.4413C82.5438 48.2781 82.5267 48.0818 82.5181 48.005C82.509 47.9282 82.4952 47.8026 82.4862 47.7257C82.4162 47.0992 82.3533 46.6185 82.3109 46.3819C82.3018 46.3339 82.2861 46.2312 82.2756 46.1536C82.2651 46.076 82.2489 45.9739 82.2399 45.9267C82.2308 45.8795 82.2132 45.7859 82.2008 45.7186L82.1694 45.5441C82.1499 45.4365 82.005 44.7193 81.9788 44.6017C81.9641 44.5345 81.9264 44.3606 81.8955 44.2152C81.6492 43.0677 80.8842 40.7014 80.4554 39.7607C80.4102 39.6612 80.373 39.5713 80.373 39.5609C80.373 39.5506 80.3349 39.4593 80.2887 39.358C80.2425 39.2567 80.1305 39.0089 80.04 38.8073C79.1897 36.9146 77.8401 34.6992 76.5096 33.0129C76.3605 32.8234 75.9532 32.3246 75.8861 32.2489C75.7984 32.1501 75.767 32.1134 75.5035 31.8053C75.1848 31.4321 74.9514 31.1873 74.1945 30.43C73.4451 29.6802 73.2646 29.5071 72.903 29.1922C72.7973 29.1002 72.6639 28.9836 72.6067 28.9332C72.4302 28.7785 72.0487 28.4624 71.9271 28.3704C71.8637 28.3224 71.7566 28.236 71.6892 28.1784C71.6218 28.1208 71.3608 27.9208 71.1092 27.7339C70.8575 27.547 70.6325 27.3779 70.6091 27.3583C70.5219 27.285 69.2783 26.4506 69.2562 26.4506C69.2436 26.4506 69.1818 26.4113 69.1188 26.3633C69.0559 26.3153 68.9949 26.276 68.9833 26.276C68.9717 26.276 68.8946 26.2306 68.8121 26.1751C68.4922 25.9599 67.4521 25.3835 66.7474 25.0307C65.4432 24.3779 64.3282 23.9111 63.0247 23.4723C62.4469 23.2779 61.4534 22.9813 61.1921 22.9253C61.1153 22.9088 60.9661 22.8714 60.8605 22.8421C60.7549 22.8129 60.6241 22.7811 60.5698 22.7715C60.5156 22.762 60.4214 22.7385 60.3604 22.7193C60.2995 22.7002 60.2025 22.6762 60.1449 22.666C60.0873 22.6557 59.9617 22.631 59.8657 22.6109C59.7697 22.5908 59.6519 22.5671 59.6039 22.5581C59.5165 22.5418 59.4921 22.537 59.1675 22.4725C59.0716 22.4534 58.942 22.4296 58.8796 22.4196C58.8172 22.4096 58.7151 22.3929 58.6527 22.3825C58.5903 22.372 58.4921 22.3558 58.4345 22.3463C58.3769 22.3369 58.3062 22.323 58.2774 22.3154C58.2486 22.3078 58.1366 22.2921 58.0284 22.2805C57.9202 22.2689 57.7946 22.2522 57.7492 22.2434C57.7037 22.2346 57.5802 22.2186 57.4746 22.2077C57.369 22.1969 57.2433 22.1811 57.1954 22.1727C57.1474 22.1642 57.0295 22.1493 56.9336 22.1396C56.8376 22.1298 56.6884 22.1145 56.602 22.1055C56.5155 22.0965 56.3271 22.0802 56.1831 22.0693C56.0391 22.0583 55.8349 22.0404 55.7293 22.0294C55.4212 21.9973 52.4661 21.9884 52.0642 22.0183Z" fill="#06B6D4" stroke="#156775" stroke-width="4" mask="url(#path-1-inside-1_1_40)"/>
<g filter="url(#filter0_d_1_40)">
<path d="M94.8711 66.129C94.8711 98 94.8711 98 63.0001 98C45.3983 98 31.1292 83.7309 31.1292 66.129C31.1292 48.5272 45.3983 34.2581 63.0001 34.2581C80.602 34.2581 94.8711 48.5272 94.8711 66.129Z" fill="#191B1F"/>
<path d="M93.8711 66.129C93.8711 74.1212 93.8696 80.0305 93.3792 84.444C92.888 88.8648 91.9242 91.5649 90.1801 93.309C88.436 95.0531 85.7359 96.0169 81.3151 96.5081C76.9016 96.9985 70.9923 97 63.0001 97C45.9505 97 32.1292 83.1786 32.1292 66.129C32.1292 49.0795 45.9505 35.2581 63.0001 35.2581C80.0497 35.2581 93.8711 49.0795 93.8711 66.129Z" stroke="#363B44" stroke-width="2"/>
</g>
<path d="M63.5147 76.2795C61.9869 76.2795 60.5988 76.0279 59.3504 75.5249C58.1021 75.0218 57.0214 74.3138 56.1084 73.4008C55.1954 72.4878 54.4874 71.4165 53.9843 70.1867C53.4999 68.957 53.2577 67.6248 53.2577 66.1901C53.2577 64.7554 53.5092 63.4232 54.0123 62.1935C54.534 60.9638 55.2606 59.9017 56.1923 59.0074C57.1425 58.0944 58.2511 57.3864 59.5181 56.8833C60.7851 56.3802 62.1732 56.1287 63.6824 56.1287C64.7258 56.1287 65.7227 56.2684 66.6729 56.5479C67.6231 56.8274 68.4895 57.2094 69.2721 57.6938C70.0547 58.1782 70.6975 58.7372 71.2005 59.3707L68.6013 62.1097C67.8747 61.4203 67.1014 60.8892 66.2816 60.5166C65.4618 60.1253 64.5768 59.9297 63.6265 59.9297C62.7508 59.9297 61.9403 60.0881 61.195 60.4048C60.4684 60.7029 59.8255 61.1408 59.2666 61.7184C58.7262 62.2773 58.2977 62.9388 57.981 63.7027C57.6828 64.4666 57.5338 65.2958 57.5338 66.1901C57.5338 67.0658 57.6922 67.8857 58.0089 68.6496C58.3443 69.4135 58.7915 70.0843 59.3504 70.6619C59.928 71.2208 60.5988 71.668 61.3627 72.0034C62.1266 72.3201 62.9464 72.4785 63.8222 72.4785C64.437 72.4785 65.0146 72.3853 65.555 72.199C66.1139 71.9941 66.5984 71.7239 67.0083 71.3885C67.4368 71.0531 67.7722 70.6619 68.0144 70.2147C68.2566 69.7675 68.3778 69.2831 68.3778 68.7614V68.0906L68.9088 68.8732H63.375V65.3517H72.3744C72.4116 65.5566 72.4396 65.8082 72.4582 66.1063C72.4768 66.4044 72.4862 66.6932 72.4862 66.9727C72.5048 67.2522 72.5141 67.4851 72.5141 67.6714C72.5141 68.9384 72.2905 70.1029 71.8434 71.1649C71.3962 72.2083 70.7627 73.112 69.9429 73.8759C69.123 74.6398 68.1635 75.2361 67.0642 75.6646C65.9649 76.0745 64.7817 76.2795 63.5147 76.2795Z" fill="#CECECE"/>
</g>
<defs>
<filter id="filter0_d_1_40" x="16.6579" y="29.1567" width="94.7666" height="94.7666" filterUnits="userSpaceOnUse" color-interpolation-filters="sRGB">
<feFlood flood-opacity="0" result="BackgroundImageFix"/>
<feColorMatrix in="SourceAlpha" type="matrix" values="0 0 0 0 0 0 0 0 0 0 0 0 0 0 0 0 0 0 127 0" result="hardAlpha"/>
<feOffset dx="1.0411" dy="10.411"/>
<feGaussianBlur stdDeviation="7.75616"/>
<feComposite in2="hardAlpha" operator="out"/>
<feColorMatrix type="matrix" values="0 0 0 0 0.0980392 0 0 0 0 0.105882 0 0 0 0 0.121569 0 0 0 1 0"/>
<feBlend mode="normal" in2="BackgroundImageFix" result="effect1_dropShadow_1_40"/>
<feBlend mode="normal" in="SourceGraphic" in2="effect1_dropShadow_1_40" result="shape"/>
</filter>
<clipPath id="clip0_1_40">
<rect width="120" height="120" fill="white"/>
</clipPath>
</defs>
</svg>