<svg width="161" height="44" viewBox="0 0 161 44" fill="none" xmlns="http://www.w3.org/2000/svg">
    <rect width="161" height="43.4929" rx="12.2085" fill="white" fill-opacity="0.29" />
    <mask id="path-2-inside-1_211_82" fill="white">
        <path
            d="M28.6486 6.39949C28.3858 6.41907 28.2759 6.42825 28.2255 6.43485C28.1983 6.4384 28.1407 6.44468 28.0974 6.44881C28.0541 6.45293 28.0052 6.45888 27.9888 6.46203C27.9725 6.46519 27.9159 6.4717 27.8631 6.47651C27.8103 6.48132 27.7501 6.48852 27.7293 6.49248C27.7085 6.49644 27.6704 6.50234 27.6447 6.50557C27.6189 6.50878 27.582 6.51472 27.5626 6.51876C27.5432 6.52277 27.5019 6.52957 27.4709 6.53386C27.3328 6.55292 27.2312 6.57214 26.9067 6.64056L26.8957 6.64289C26.8538 6.65172 26.8186 6.65914 26.8151 6.65988C26.7664 6.67008 26.6921 6.68664 26.6811 6.68974C26.6535 6.69747 26.5959 6.711 26.5612 6.71789C26.5418 6.72174 26.5005 6.73201 26.4695 6.74072C26.3901 6.76297 26.3881 6.76351 26.3566 6.77063C26.3411 6.77414 26.303 6.78386 26.272 6.7922C26.241 6.80055 26.2108 6.80748 26.205 6.80763C26.1991 6.80775 26.1721 6.81713 26.145 6.82847C26.1179 6.8398 26.0957 6.8465 26.0957 6.84335C26.0957 6.84022 26.0688 6.84737 26.0358 6.85925C26.0028 6.87114 25.9658 6.88299 25.9535 6.88558C25.924 6.89181 25.4198 7.05947 25.3835 7.07514C25.368 7.08183 25.3235 7.09829 25.2847 7.11173C25.2459 7.12517 25.1952 7.14416 25.1719 7.15393C25.1486 7.1637 25.0915 7.1861 25.045 7.2037C24.9984 7.22131 24.9543 7.24108 24.9469 7.24762C24.9396 7.25417 24.9254 7.25953 24.9156 7.25953C24.9057 7.25953 24.8641 7.27497 24.8232 7.29384C24.7823 7.31273 24.7043 7.34717 24.65 7.3704C23.8508 7.71233 22.8853 8.29115 22.1606 8.86279C22.0841 8.9232 21.8825 9.08777 21.8519 9.11487C21.812 9.15023 21.7972 9.16301 21.6727 9.2694C21.5219 9.39823 21.4229 9.49243 21.117 9.79831C20.814 10.1012 20.7441 10.1742 20.6168 10.3202C20.5796 10.3628 20.5325 10.4167 20.5122 10.4399C20.4496 10.5112 20.3219 10.6654 20.2847 10.7145C20.2654 10.7401 20.2304 10.7834 20.2072 10.8106C20.1839 10.8379 20.1031 10.9433 20.0276 11.045C19.952 11.1467 19.8837 11.2376 19.8758 11.2471C19.8462 11.2823 19.509 11.7848 19.509 11.7937C19.509 11.7988 19.4931 11.8238 19.4737 11.8492C19.4544 11.8747 19.4385 11.8993 19.4385 11.904C19.4385 11.9087 19.4201 11.9398 19.3977 11.9732C19.3025 12.1147 19.0697 12.5378 18.9103 12.8589C18.6528 13.378 18.4683 13.824 18.2915 14.3548C18.2207 14.5673 18.0959 14.9887 18.0786 15.0733C18.0747 15.0927 18.0591 15.1548 18.044 15.2112C18.0289 15.2676 18.0167 15.3152 18.0168 15.317C18.0169 15.3187 18.0103 15.3455 18.0023 15.3766C17.9942 15.4076 17.9842 15.452 17.9802 15.4753C17.9761 15.4986 17.9666 15.543 17.9592 15.574C17.9517 15.6051 17.942 15.6527 17.9377 15.6798C17.9296 15.7303 17.9278 15.7393 17.9035 15.8491C17.8957 15.884 17.8857 15.9411 17.8811 15.976C17.8766 16.0109 17.8698 16.0551 17.8661 16.0742C17.8623 16.0933 17.8555 16.1344 17.8508 16.1656C17.8462 16.1967 17.8403 16.2255 17.8379 16.2296C17.8354 16.2336 17.8292 16.2718 17.8242 16.3145C17.8192 16.3572 17.8128 16.408 17.8101 16.4273C17.8073 16.4467 17.8012 16.4943 17.7966 16.5331C17.7919 16.5719 17.785 16.6259 17.7813 16.653C17.766 16.7653 17.7462 16.9713 17.7216 17.2736C17.7175 17.3236 17.7146 18.26 17.7129 19.5773C17.7133 19.6384 17.7138 19.8474 17.7142 20.2179C17.7162 21.7635 17.7162 24.2928 17.7142 25.8385C17.7138 26.185 17.7134 26.3904 17.713 26.4654C17.7147 27.7674 17.7177 28.68 17.7217 28.6981C17.7806 28.962 17.886 29.1523 18.0776 29.3412C18.2409 29.5021 18.4823 29.6326 18.6783 29.6659C18.7124 29.6718 21.2315 29.6786 24.2763 29.6811C29.5144 29.6855 29.9849 29.683 30.32 29.6491C30.4324 29.6378 30.5118 29.6303 30.595 29.6233C30.6377 29.6199 30.6916 29.6131 30.7149 29.6087C30.7382 29.6041 30.7985 29.5972 30.8489 29.5931C30.8993 29.5891 30.9564 29.5818 30.9758 29.577C30.9952 29.5721 31.0269 29.5666 31.0464 29.5646C31.0657 29.5625 31.107 29.5569 31.138 29.5521C31.1691 29.5473 31.2167 29.54 31.2438 29.5361C31.271 29.5321 31.3113 29.5263 31.3334 29.5231C31.3556 29.5198 31.3865 29.513 31.4023 29.508C31.418 29.503 31.4475 29.4976 31.4678 29.4959C31.4881 29.4942 31.5555 29.4819 31.6176 29.4688C31.7506 29.4407 31.8827 29.4126 31.8926 29.4106C31.99 29.3902 32.0326 29.3797 32.0372 29.375C32.0391 29.3731 32.0534 29.3696 32.0689 29.3671C32.1201 29.3593 32.1809 29.3458 32.2382 29.3296C32.2692 29.3208 32.2994 29.3123 32.3052 29.3109C32.311 29.3094 32.3205 29.3063 32.3263 29.3042C32.3321 29.3021 32.3432 29.2992 32.351 29.298C32.4069 29.2888 32.4667 29.2709 32.4818 29.2586C32.4917 29.2507 32.5036 29.248 32.5083 29.2526C32.513 29.2572 32.5382 29.2522 32.5643 29.2413C32.5905 29.2303 32.6119 29.2239 32.6119 29.2272C32.6119 29.2303 32.6389 29.2232 32.6719 29.2112C32.7048 29.1993 32.7419 29.1876 32.7542 29.1849C32.7837 29.1787 33.2878 29.011 33.3242 28.9953C33.3397 28.9887 33.3841 28.9722 33.4229 28.9587C33.4617 28.9452 33.5125 28.9264 33.5358 28.9165C33.559 28.9067 33.6162 28.8844 33.6627 28.8667C33.7093 28.8492 33.7533 28.8293 33.7607 28.8228C33.7681 28.8162 33.7822 28.8109 33.7921 28.8109C33.802 28.8109 33.8435 28.7955 33.8845 28.7766C33.9254 28.7577 34.0033 28.7233 34.0576 28.7C34.8569 28.3581 35.8224 27.7793 36.547 27.2076C36.6236 27.1472 36.8252 26.9826 36.8558 26.9557C36.8957 26.9203 36.9105 26.9074 37.035 26.8011C37.1857 26.6722 37.2847 26.578 37.5907 26.2722C37.8937 25.9692 37.9636 25.8962 38.0908 25.7503C38.1279 25.7076 38.1751 25.6537 38.1955 25.6305C38.2581 25.5593 38.3857 25.4051 38.4228 25.356C38.4423 25.3303 38.4773 25.2871 38.5004 25.2598C38.5237 25.2326 38.6045 25.1271 38.6802 25.0255C38.7556 24.9238 38.824 24.8328 38.8319 24.8234C38.8615 24.7882 39.1987 24.2857 39.1987 24.2767C39.1987 24.2717 39.2145 24.2467 39.234 24.2212C39.2532 24.1958 39.2692 24.1712 39.2692 24.1665C39.2692 24.1618 39.2875 24.1306 39.31 24.0973C39.5443 23.749 40.0324 22.7651 40.2218 22.2595C40.3794 21.8388 40.513 21.4359 40.5819 21.1734C40.6449 20.934 40.709 20.678 40.7159 20.6387C40.72 20.616 40.7255 20.5937 40.7284 20.589C40.7313 20.5843 40.7379 20.5522 40.7431 20.5176C40.7482 20.483 40.7548 20.4509 40.7577 20.4461C40.7652 20.434 40.8487 19.9769 40.8697 19.8335C40.8741 19.8025 40.8838 19.739 40.8909 19.6925C40.898 19.646 40.9076 19.5698 40.9122 19.5232C40.9169 19.4767 40.923 19.4259 40.9263 19.4104C40.9294 19.3949 40.9359 19.3441 40.9405 19.2976C40.9454 19.251 40.9517 19.1907 40.955 19.1636C40.9583 19.1364 40.9648 19.0571 40.9698 18.9873C40.9746 18.9175 40.9808 18.8476 40.9833 18.8321C40.9858 18.8166 40.9898 18.7532 40.9923 18.6911L40.9898 17.4852C40.9898 17.4852 40.9927 17.4593 40.9906 17.3864C40.9892 17.336 40.986 17.2725 40.9833 17.2454C40.9806 17.2182 40.9742 17.1421 40.9694 17.0761C40.9644 17.0102 40.9575 16.9309 40.954 16.8998C40.9504 16.8688 40.9448 16.818 40.9411 16.787C40.9128 16.5338 40.8874 16.3396 40.8703 16.244C40.8666 16.2246 40.8603 16.1831 40.856 16.1518C40.8518 16.1204 40.8453 16.0791 40.8416 16.0601C40.8379 16.041 40.8308 16.0032 40.8258 15.976L40.8131 15.9055C40.8052 15.862 40.7467 15.5722 40.7361 15.5247C40.7302 15.4975 40.7149 15.4272 40.7024 15.3685C40.6029 14.9049 40.2938 13.9487 40.1206 13.5686C40.1023 13.5284 40.0873 13.492 40.0873 13.4879C40.0873 13.4837 40.0719 13.4468 40.0532 13.4059C40.0345 13.3649 39.9893 13.2648 39.9527 13.1833C39.6091 12.4186 39.0638 11.5234 38.5262 10.842C38.4659 10.7655 38.3014 10.5639 38.2742 10.5333C38.2388 10.4934 38.2261 10.4786 38.1197 10.3541C37.9909 10.2033 37.8966 10.1044 37.5907 9.79837C37.2879 9.4954 37.215 9.42547 37.0689 9.29821C37.0262 9.26103 36.9723 9.21394 36.9491 9.19358C36.8778 9.13104 36.7237 9.00333 36.6745 8.96616C36.6489 8.94676 36.6057 8.91186 36.5784 8.88859C36.5512 8.86531 36.4457 8.78447 36.344 8.70896C36.2424 8.63343 36.1514 8.56513 36.142 8.55718C36.1068 8.52756 35.6043 8.19041 35.5953 8.19041C35.5902 8.19041 35.5653 8.17455 35.5398 8.15515C35.5144 8.13576 35.4898 8.11989 35.4851 8.11989C35.4804 8.11989 35.4492 8.10153 35.4159 8.0791C35.2866 7.99215 34.8664 7.75923 34.5816 7.61668C34.0546 7.3529 33.6041 7.16431 33.0774 6.987C32.8439 6.90843 32.4425 6.78858 32.3369 6.76596C32.3059 6.75932 32.2456 6.7442 32.2029 6.73237C32.1602 6.72054 32.1074 6.70771 32.0855 6.70385C32.0635 6.7 32.0255 6.6905 32.0008 6.68275C31.9762 6.675 31.937 6.6653 31.9138 6.66118C31.8905 6.65705 31.8397 6.64705 31.8009 6.63892C31.7621 6.63081 31.7145 6.62122 31.6951 6.6176C31.6598 6.61101 31.65 6.60908 31.5188 6.583C31.4801 6.57529 31.4277 6.56568 31.4025 6.56165C31.3773 6.55761 31.336 6.55086 31.3108 6.54664C31.2856 6.54242 31.2459 6.53585 31.2226 6.53203C31.1994 6.52822 31.1708 6.52259 31.1592 6.51953C31.1475 6.51647 31.1023 6.51012 31.0586 6.50543C31.0148 6.50074 30.9641 6.494 30.9457 6.49045C30.9274 6.48689 30.8774 6.48041 30.8348 6.47603C30.7921 6.47165 30.7413 6.46527 30.722 6.46186C30.7026 6.45844 30.655 6.45242 30.6162 6.44849C30.5774 6.44455 30.5171 6.43835 30.4822 6.43471C30.4473 6.43108 30.3711 6.4245 30.3129 6.42008C30.2547 6.41567 30.1722 6.40842 30.1296 6.40397C30.0051 6.39101 28.811 6.38739 28.6486 6.39949Z" />
    </mask>
    <path
        d="M28.6486 6.39949C28.3858 6.41907 28.2759 6.42825 28.2255 6.43485C28.1983 6.4384 28.1407 6.44468 28.0974 6.44881C28.0541 6.45293 28.0052 6.45888 27.9888 6.46203C27.9725 6.46519 27.9159 6.4717 27.8631 6.47651C27.8103 6.48132 27.7501 6.48852 27.7293 6.49248C27.7085 6.49644 27.6704 6.50234 27.6447 6.50557C27.6189 6.50878 27.582 6.51472 27.5626 6.51876C27.5432 6.52277 27.5019 6.52957 27.4709 6.53386C27.3328 6.55292 27.2312 6.57214 26.9067 6.64056L26.8957 6.64289C26.8538 6.65172 26.8186 6.65914 26.8151 6.65988C26.7664 6.67008 26.6921 6.68664 26.6811 6.68974C26.6535 6.69747 26.5959 6.711 26.5612 6.71789C26.5418 6.72174 26.5005 6.73201 26.4695 6.74072C26.3901 6.76297 26.3881 6.76351 26.3566 6.77063C26.3411 6.77414 26.303 6.78386 26.272 6.7922C26.241 6.80055 26.2108 6.80748 26.205 6.80763C26.1991 6.80775 26.1721 6.81713 26.145 6.82847C26.1179 6.8398 26.0957 6.8465 26.0957 6.84335C26.0957 6.84022 26.0688 6.84737 26.0358 6.85925C26.0028 6.87114 25.9658 6.88299 25.9535 6.88558C25.924 6.89181 25.4198 7.05947 25.3835 7.07514C25.368 7.08183 25.3235 7.09829 25.2847 7.11173C25.2459 7.12517 25.1952 7.14416 25.1719 7.15393C25.1486 7.1637 25.0915 7.1861 25.045 7.2037C24.9984 7.22131 24.9543 7.24108 24.9469 7.24762C24.9396 7.25417 24.9254 7.25953 24.9156 7.25953C24.9057 7.25953 24.8641 7.27497 24.8232 7.29384C24.7823 7.31273 24.7043 7.34717 24.65 7.3704C23.8508 7.71233 22.8853 8.29115 22.1606 8.86279C22.0841 8.9232 21.8825 9.08777 21.8519 9.11487C21.812 9.15023 21.7972 9.16301 21.6727 9.2694C21.5219 9.39823 21.4229 9.49243 21.117 9.79831C20.814 10.1012 20.7441 10.1742 20.6168 10.3202C20.5796 10.3628 20.5325 10.4167 20.5122 10.4399C20.4496 10.5112 20.3219 10.6654 20.2847 10.7145C20.2654 10.7401 20.2304 10.7834 20.2072 10.8106C20.1839 10.8379 20.1031 10.9433 20.0276 11.045C19.952 11.1467 19.8837 11.2376 19.8758 11.2471C19.8462 11.2823 19.509 11.7848 19.509 11.7937C19.509 11.7988 19.4931 11.8238 19.4737 11.8492C19.4544 11.8747 19.4385 11.8993 19.4385 11.904C19.4385 11.9087 19.4201 11.9398 19.3977 11.9732C19.3025 12.1147 19.0697 12.5378 18.9103 12.8589C18.6528 13.378 18.4683 13.824 18.2915 14.3548C18.2207 14.5673 18.0959 14.9887 18.0786 15.0733C18.0747 15.0927 18.0591 15.1548 18.044 15.2112C18.0289 15.2676 18.0167 15.3152 18.0168 15.317C18.0169 15.3187 18.0103 15.3455 18.0023 15.3766C17.9942 15.4076 17.9842 15.452 17.9802 15.4753C17.9761 15.4986 17.9666 15.543 17.9592 15.574C17.9517 15.6051 17.942 15.6527 17.9377 15.6798C17.9296 15.7303 17.9278 15.7393 17.9035 15.8491C17.8957 15.884 17.8857 15.9411 17.8811 15.976C17.8766 16.0109 17.8698 16.0551 17.8661 16.0742C17.8623 16.0933 17.8555 16.1344 17.8508 16.1656C17.8462 16.1967 17.8403 16.2255 17.8379 16.2296C17.8354 16.2336 17.8292 16.2718 17.8242 16.3145C17.8192 16.3572 17.8128 16.408 17.8101 16.4273C17.8073 16.4467 17.8012 16.4943 17.7966 16.5331C17.7919 16.5719 17.785 16.6259 17.7813 16.653C17.766 16.7653 17.7462 16.9713 17.7216 17.2736C17.7175 17.3236 17.7146 18.26 17.7129 19.5773C17.7133 19.6384 17.7138 19.8474 17.7142 20.2179C17.7162 21.7635 17.7162 24.2928 17.7142 25.8385C17.7138 26.185 17.7134 26.3904 17.713 26.4654C17.7147 27.7674 17.7177 28.68 17.7217 28.6981C17.7806 28.962 17.886 29.1523 18.0776 29.3412C18.2409 29.5021 18.4823 29.6326 18.6783 29.6659C18.7124 29.6718 21.2315 29.6786 24.2763 29.6811C29.5144 29.6855 29.9849 29.683 30.32 29.6491C30.4324 29.6378 30.5118 29.6303 30.595 29.6233C30.6377 29.6199 30.6916 29.6131 30.7149 29.6087C30.7382 29.6041 30.7985 29.5972 30.8489 29.5931C30.8993 29.5891 30.9564 29.5818 30.9758 29.577C30.9952 29.5721 31.0269 29.5666 31.0464 29.5646C31.0657 29.5625 31.107 29.5569 31.138 29.5521C31.1691 29.5473 31.2167 29.54 31.2438 29.5361C31.271 29.5321 31.3113 29.5263 31.3334 29.5231C31.3556 29.5198 31.3865 29.513 31.4023 29.508C31.418 29.503 31.4475 29.4976 31.4678 29.4959C31.4881 29.4942 31.5555 29.4819 31.6176 29.4688C31.7506 29.4407 31.8827 29.4126 31.8926 29.4106C31.99 29.3902 32.0326 29.3797 32.0372 29.375C32.0391 29.3731 32.0534 29.3696 32.0689 29.3671C32.1201 29.3593 32.1809 29.3458 32.2382 29.3296C32.2692 29.3208 32.2994 29.3123 32.3052 29.3109C32.311 29.3094 32.3205 29.3063 32.3263 29.3042C32.3321 29.3021 32.3432 29.2992 32.351 29.298C32.4069 29.2888 32.4667 29.2709 32.4818 29.2586C32.4917 29.2507 32.5036 29.248 32.5083 29.2526C32.513 29.2572 32.5382 29.2522 32.5643 29.2413C32.5905 29.2303 32.6119 29.2239 32.6119 29.2272C32.6119 29.2303 32.6389 29.2232 32.6719 29.2112C32.7048 29.1993 32.7419 29.1876 32.7542 29.1849C32.7837 29.1787 33.2878 29.011 33.3242 28.9953C33.3397 28.9887 33.3841 28.9722 33.4229 28.9587C33.4617 28.9452 33.5125 28.9264 33.5358 28.9165C33.559 28.9067 33.6162 28.8844 33.6627 28.8667C33.7093 28.8492 33.7533 28.8293 33.7607 28.8228C33.7681 28.8162 33.7822 28.8109 33.7921 28.8109C33.802 28.8109 33.8435 28.7955 33.8845 28.7766C33.9254 28.7577 34.0033 28.7233 34.0576 28.7C34.8569 28.3581 35.8224 27.7793 36.547 27.2076C36.6236 27.1472 36.8252 26.9826 36.8558 26.9557C36.8957 26.9203 36.9105 26.9074 37.035 26.8011C37.1857 26.6722 37.2847 26.578 37.5907 26.2722C37.8937 25.9692 37.9636 25.8962 38.0908 25.7503C38.1279 25.7076 38.1751 25.6537 38.1955 25.6305C38.2581 25.5593 38.3857 25.4051 38.4228 25.356C38.4423 25.3303 38.4773 25.2871 38.5004 25.2598C38.5237 25.2326 38.6045 25.1271 38.6802 25.0255C38.7556 24.9238 38.824 24.8328 38.8319 24.8234C38.8615 24.7882 39.1987 24.2857 39.1987 24.2767C39.1987 24.2717 39.2145 24.2467 39.234 24.2212C39.2532 24.1958 39.2692 24.1712 39.2692 24.1665C39.2692 24.1618 39.2875 24.1306 39.31 24.0973C39.5443 23.749 40.0324 22.7651 40.2218 22.2595C40.3794 21.8388 40.513 21.4359 40.5819 21.1734C40.6449 20.934 40.709 20.678 40.7159 20.6387C40.72 20.616 40.7255 20.5937 40.7284 20.589C40.7313 20.5843 40.7379 20.5522 40.7431 20.5176C40.7482 20.483 40.7548 20.4509 40.7577 20.4461C40.7652 20.434 40.8487 19.9769 40.8697 19.8335C40.8741 19.8025 40.8838 19.739 40.8909 19.6925C40.898 19.646 40.9076 19.5698 40.9122 19.5232C40.9169 19.4767 40.923 19.4259 40.9263 19.4104C40.9294 19.3949 40.9359 19.3441 40.9405 19.2976C40.9454 19.251 40.9517 19.1907 40.955 19.1636C40.9583 19.1364 40.9648 19.0571 40.9698 18.9873C40.9746 18.9175 40.9808 18.8476 40.9833 18.8321C40.9858 18.8166 40.9898 18.7532 40.9923 18.6911L40.9898 17.4852C40.9898 17.4852 40.9927 17.4593 40.9906 17.3864C40.9892 17.336 40.986 17.2725 40.9833 17.2454C40.9806 17.2182 40.9742 17.1421 40.9694 17.0761C40.9644 17.0102 40.9575 16.9309 40.954 16.8998C40.9504 16.8688 40.9448 16.818 40.9411 16.787C40.9128 16.5338 40.8874 16.3396 40.8703 16.244C40.8666 16.2246 40.8603 16.1831 40.856 16.1518C40.8518 16.1204 40.8453 16.0791 40.8416 16.0601C40.8379 16.041 40.8308 16.0032 40.8258 15.976L40.8131 15.9055C40.8052 15.862 40.7467 15.5722 40.7361 15.5247C40.7302 15.4975 40.7149 15.4272 40.7024 15.3685C40.6029 14.9049 40.2938 13.9487 40.1206 13.5686C40.1023 13.5284 40.0873 13.492 40.0873 13.4879C40.0873 13.4837 40.0719 13.4468 40.0532 13.4059C40.0345 13.3649 39.9893 13.2648 39.9527 13.1833C39.6091 12.4186 39.0638 11.5234 38.5262 10.842C38.4659 10.7655 38.3014 10.5639 38.2742 10.5333C38.2388 10.4934 38.2261 10.4786 38.1197 10.3541C37.9909 10.2033 37.8966 10.1044 37.5907 9.79837C37.2879 9.4954 37.215 9.42547 37.0689 9.29821C37.0262 9.26103 36.9723 9.21394 36.9491 9.19358C36.8778 9.13104 36.7237 9.00333 36.6745 8.96616C36.6489 8.94676 36.6057 8.91186 36.5784 8.88859C36.5512 8.86531 36.4457 8.78447 36.344 8.70896C36.2424 8.63343 36.1514 8.56513 36.142 8.55718C36.1068 8.52756 35.6043 8.19041 35.5953 8.19041C35.5902 8.19041 35.5653 8.17455 35.5398 8.15515C35.5144 8.13576 35.4898 8.11989 35.4851 8.11989C35.4804 8.11989 35.4492 8.10153 35.4159 8.0791C35.2866 7.99215 34.8664 7.75923 34.5816 7.61668C34.0546 7.3529 33.6041 7.16431 33.0774 6.987C32.8439 6.90843 32.4425 6.78858 32.3369 6.76596C32.3059 6.75932 32.2456 6.7442 32.2029 6.73237C32.1602 6.72054 32.1074 6.70771 32.0855 6.70385C32.0635 6.7 32.0255 6.6905 32.0008 6.68275C31.9762 6.675 31.937 6.6653 31.9138 6.66118C31.8905 6.65705 31.8397 6.64705 31.8009 6.63892C31.7621 6.63081 31.7145 6.62122 31.6951 6.6176C31.6598 6.61101 31.65 6.60908 31.5188 6.583C31.4801 6.57529 31.4277 6.56568 31.4025 6.56165C31.3773 6.55761 31.336 6.55086 31.3108 6.54664C31.2856 6.54242 31.2459 6.53585 31.2226 6.53203C31.1994 6.52822 31.1708 6.52259 31.1592 6.51953C31.1475 6.51647 31.1023 6.51012 31.0586 6.50543C31.0148 6.50074 30.9641 6.494 30.9457 6.49045C30.9274 6.48689 30.8774 6.48041 30.8348 6.47603C30.7921 6.47165 30.7413 6.46527 30.722 6.46186C30.7026 6.45844 30.655 6.45242 30.6162 6.44849C30.5774 6.44455 30.5171 6.43835 30.4822 6.43471C30.4473 6.43108 30.3711 6.4245 30.3129 6.42008C30.2547 6.41567 30.1722 6.40842 30.1296 6.40397C30.0051 6.39101 28.811 6.38739 28.6486 6.39949Z"
        fill="#06B6D4" stroke="#156775" stroke-width="1.61627" mask="url(#path-2-inside-1_211_82)" />
    <path
        d="M45.5413 24.2232C45.5413 27.4526 45.5408 29.8403 45.3426 31.6237C45.1441 33.41 44.7547 34.501 44.0499 35.2057C43.3452 35.9104 42.2542 36.2999 40.4679 36.4984C38.6846 36.6965 36.2968 36.6971 33.0674 36.6971C26.1783 36.6971 20.5935 31.1123 20.5935 24.2232C20.5935 17.334 26.1783 11.7493 33.0674 11.7493C39.9566 11.7493 45.5413 17.334 45.5413 24.2232Z"
        fill="#191B1F" stroke="#363B44" stroke-width="0.808133" />
    <path
        d="M33.2758 28.0109C32.6584 28.0109 32.0975 27.9092 31.5931 27.706C31.0887 27.5027 30.652 27.2166 30.2831 26.8477C29.9142 26.4788 29.6281 26.0459 29.4248 25.549C29.2291 25.0521 29.1312 24.5138 29.1312 23.9341C29.1312 23.3544 29.2329 22.8161 29.4361 22.3192C29.6469 21.8223 29.9406 21.3932 30.317 21.0318C30.701 20.6629 31.1489 20.3768 31.6609 20.1735C32.1728 19.9703 32.7337 19.8686 33.3435 19.8686C33.7651 19.8686 34.1679 19.9251 34.5519 20.038C34.9358 20.151 35.2859 20.3053 35.6021 20.501C35.9183 20.6968 36.1781 20.9226 36.3813 21.1786L35.3311 22.2853C35.0375 22.0068 34.725 21.7922 34.3938 21.6416C34.0625 21.4835 33.7049 21.4045 33.3209 21.4045C32.9671 21.4045 32.6396 21.4685 32.3384 21.5965C32.0448 21.7169 31.7851 21.8938 31.5592 22.1272C31.3409 22.3531 31.1677 22.6204 31.0397 22.929C30.9193 23.2377 30.8591 23.5727 30.8591 23.9341C30.8591 24.288 30.9231 24.6192 31.051 24.9279C31.1866 25.2366 31.3672 25.5076 31.5931 25.741C31.8265 25.9668 32.0975 26.1475 32.4062 26.2831C32.7149 26.411 33.0461 26.475 33.4 26.475C33.6484 26.475 33.8818 26.4374 34.1002 26.3621C34.326 26.2793 34.5218 26.1701 34.6874 26.0346C34.8605 25.8991 34.9961 25.741 35.0939 25.5603C35.1918 25.3796 35.2407 25.1839 35.2407 24.9731V24.702L35.4553 25.0182H33.2193V23.5953H36.8556C36.8707 23.6781 36.882 23.7798 36.8895 23.9002C36.8971 24.0207 36.9008 24.1374 36.9008 24.2503C36.9083 24.3632 36.9121 24.4573 36.9121 24.5326C36.9121 25.0446 36.8218 25.5151 36.6411 25.9443C36.4604 26.3659 36.2044 26.731 35.8732 27.0397C35.5419 27.3484 35.1542 27.5893 34.71 27.7624C34.2658 27.9281 33.7877 28.0109 33.2758 28.0109Z"
        fill="#CECECE" />
    <path
        d="M59.36 29.443C58.3386 29.443 57.3892 29.2662 56.5119 28.9127C55.6476 28.546 54.8881 28.0419 54.2334 27.4002C53.5787 26.7586 53.0745 26.0122 52.721 25.1611C52.3674 24.2968 52.1906 23.3605 52.1906 22.3523C52.1906 21.3571 52.374 20.4339 52.7406 19.5827C53.1073 18.7316 53.6114 17.9852 54.253 17.3436C54.9078 16.7019 55.6738 16.2043 56.5512 15.8508C57.4416 15.4972 58.3975 15.3204 59.4189 15.3204C60.126 15.3204 60.8135 15.4186 61.4813 15.6151C62.1491 15.8115 62.7515 16.0865 63.2883 16.44C63.8383 16.7936 64.2901 17.193 64.6436 17.6382L63.033 19.3078C62.483 18.784 61.9069 18.3846 61.3045 18.1096C60.7022 17.8346 60.0671 17.6971 59.3992 17.6971C58.7445 17.6971 58.1356 17.815 57.5725 18.0507C57.0226 18.2864 56.5315 18.6137 56.0994 19.0328C55.6804 19.4518 55.353 19.9428 55.1173 20.5059C54.8947 21.069 54.7834 21.6844 54.7834 22.3523C54.7834 23.007 54.9012 23.6224 55.1369 24.1986C55.3857 24.7617 55.7262 25.2593 56.1583 25.6914C56.6035 26.1235 57.1077 26.464 57.6707 26.7128C58.2469 26.9485 58.8558 27.0663 59.4974 27.0663C59.9819 27.0663 60.4337 27.0009 60.8527 26.8699C61.2718 26.7259 61.645 26.5294 61.9723 26.2806C62.2997 26.0188 62.5485 25.7176 62.7187 25.3771C62.902 25.0367 62.9937 24.6766 62.9937 24.2968V23.8647L63.3473 24.2575H59.2814V21.9791H65.5079C65.5341 22.1231 65.5537 22.2868 65.5668 22.4701C65.5799 22.6403 65.5865 22.804 65.5865 22.9612C65.5995 23.1183 65.6061 23.2558 65.6061 23.3736C65.6061 24.2772 65.4424 25.1021 65.115 25.8485C64.8008 26.5818 64.3621 27.2169 63.799 27.7538C63.236 28.2907 62.5747 28.7097 61.8152 29.0109C61.0688 29.299 60.2504 29.443 59.36 29.443ZM68.1298 29.2466V18.8953H70.5261V29.2466H68.1298ZM69.3083 16.6954C68.8238 16.6954 68.444 16.5775 68.1691 16.3418C67.9072 16.093 67.7762 15.746 67.7762 15.3008C67.7762 14.8818 67.9137 14.5479 68.1887 14.2991C68.4637 14.0372 68.8369 13.9062 69.3083 13.9062C69.7928 13.9062 70.166 14.0306 70.4279 14.2794C70.7029 14.5151 70.8404 14.8556 70.8404 15.3008C70.8404 15.7067 70.7029 16.0406 70.4279 16.3025C70.1529 16.5644 69.7797 16.6954 69.3083 16.6954ZM78.2452 33.7642C77.4857 33.7642 76.7197 33.6464 75.9471 33.4107C75.1876 33.175 74.5722 32.8738 74.1008 32.5071L74.965 30.7001C75.3579 31.0013 75.8358 31.237 76.3989 31.4072C76.975 31.5905 77.5512 31.6822 78.1274 31.6822C78.8214 31.6822 79.3976 31.5709 79.8559 31.3483C80.3273 31.1257 80.6808 30.7917 80.9165 30.3465C81.1522 29.9144 81.2701 29.3775 81.2701 28.7359V26.8306L81.604 26.9681C81.5385 27.374 81.3225 27.7603 80.9558 28.127C80.6023 28.4936 80.157 28.7883 79.6202 29.0109C79.0833 29.2335 78.5333 29.3448 77.9702 29.3448C77.0012 29.3448 76.137 29.1222 75.3775 28.677C74.618 28.2187 74.0157 27.5901 73.5704 26.7913C73.1383 25.9926 72.9223 25.0759 72.9223 24.0415C72.9223 23.007 73.1383 22.0904 73.5704 21.2916C74.0026 20.4797 74.5984 19.8446 75.3579 19.3863C76.1173 18.9149 76.9685 18.6792 77.9113 18.6792C78.2911 18.6792 78.6643 18.725 79.0309 18.8167C79.3976 18.9084 79.738 19.0393 80.0523 19.2095C80.3666 19.3798 80.6415 19.5696 80.8772 19.7792C81.126 19.9887 81.329 20.2113 81.4861 20.447C81.6433 20.6827 81.7415 20.9053 81.7808 21.1148L81.2897 21.2916L81.329 18.8953H83.6664V28.5395C83.6664 29.3775 83.542 30.1174 83.2932 30.759C83.0575 31.4006 82.7039 31.9441 82.2325 32.3893C81.7611 32.8345 81.1915 33.175 80.5237 33.4107C79.8559 33.6464 79.0964 33.7642 78.2452 33.7642ZM78.3238 27.2824C78.9261 27.2824 79.4565 27.1449 79.9148 26.8699C80.3731 26.5949 80.7267 26.2152 80.9755 25.7307C81.2243 25.2462 81.3487 24.6896 81.3487 24.0611C81.3487 23.4195 81.2177 22.8564 80.9558 22.3719C80.707 21.8743 80.3535 21.488 79.8951 21.213C79.4499 20.938 78.9261 20.8005 78.3238 20.8005C77.7476 20.8005 77.2304 20.9446 76.7721 21.2327C76.3269 21.5077 75.9733 21.8939 75.7114 22.3915C75.4626 22.876 75.3382 23.4326 75.3382 24.0611C75.3382 24.6896 75.4626 25.2462 75.7114 25.7307C75.9733 26.2152 76.3269 26.5949 76.7721 26.8699C77.2304 27.1449 77.7476 27.2824 78.3238 27.2824ZM92.3923 29.2466V22.6272C92.3923 22.0642 92.2025 21.6255 91.8227 21.3112C91.4561 20.9839 90.9781 20.8202 90.3889 20.8202C89.8389 20.8202 89.3413 20.9315 88.8961 21.1541C88.4509 21.3636 88.0384 21.7041 87.6586 22.1755L86.1658 20.6827C86.7813 20.028 87.4622 19.5304 88.2086 19.1899C88.955 18.8494 89.7603 18.6792 90.6246 18.6792C91.4495 18.6792 92.1566 18.8102 92.7459 19.0721C93.3483 19.3339 93.8131 19.7268 94.1405 20.2506C94.4678 20.7613 94.6315 21.3898 94.6315 22.1362V29.2466H92.3923ZM89.4461 29.443C88.7782 29.443 88.1824 29.3121 87.6586 29.0502C87.1348 28.7883 86.7158 28.4282 86.4015 27.9699C86.1004 27.4984 85.9498 26.9485 85.9498 26.3199C85.9498 25.77 86.048 25.292 86.2444 24.8861C86.4408 24.467 86.7289 24.12 87.1087 23.845C87.5015 23.5701 87.986 23.3671 88.5622 23.2361C89.1514 23.0921 89.8258 23.0201 90.5853 23.0201H93.5512L93.3744 24.7486H90.4478C90.0942 24.7486 89.78 24.7813 89.505 24.8468C89.23 24.9123 88.9943 25.0105 88.7979 25.1414C88.6014 25.2724 88.4574 25.4295 88.3657 25.6128C88.2741 25.7831 88.2282 25.9926 88.2282 26.2414C88.2282 26.5033 88.2937 26.7324 88.4247 26.9288C88.5556 27.1122 88.7324 27.2562 88.955 27.361C89.1776 27.4657 89.4395 27.5181 89.7407 27.5181C90.1728 27.5181 90.5787 27.4461 90.9585 27.302C91.3513 27.158 91.6983 26.955 91.9995 26.6931C92.3007 26.4312 92.5364 26.1366 92.7066 25.8092L93.1977 27.1449C92.9227 27.6032 92.5822 28.0026 92.1763 28.3431C91.7834 28.6835 91.3513 28.952 90.8799 29.1484C90.4216 29.3448 89.9436 29.443 89.4461 29.443Z"
        fill="white" />
    <path
        d="M101.976 29.443C100.771 29.443 99.7238 29.2138 98.8334 28.7555C97.956 28.2972 97.2031 27.6294 96.5745 26.7521L98.2245 24.8664C98.8661 25.77 99.4881 26.392 100.09 26.7324C100.706 27.0598 101.4 27.2235 102.172 27.2235C102.618 27.2235 103.024 27.158 103.39 27.027C103.757 26.8961 104.045 26.7128 104.255 26.4771C104.464 26.2283 104.569 25.9402 104.569 25.6128C104.569 25.3902 104.523 25.1872 104.431 25.0039C104.353 24.8075 104.228 24.6373 104.058 24.4932C103.901 24.3361 103.698 24.1921 103.449 24.0611C103.214 23.9302 102.932 23.8189 102.605 23.7272C102.29 23.6224 101.943 23.5373 101.564 23.4718C100.83 23.3278 100.195 23.1379 99.6583 22.9022C99.1345 22.6534 98.6893 22.3523 98.3227 21.9987C97.9691 21.6321 97.7007 21.2261 97.5174 20.7809C97.3471 20.3226 97.262 19.8054 97.262 19.2292C97.262 18.4566 97.4781 17.7757 97.9102 17.1864C98.3554 16.5841 98.9447 16.1127 99.678 15.7722C100.424 15.4317 101.243 15.2615 102.133 15.2615C103.286 15.2615 104.261 15.471 105.06 15.8901C105.872 16.3091 106.507 16.9049 106.965 17.6775L105.276 19.3274C104.883 18.725 104.418 18.2667 103.881 17.9525C103.344 17.6382 102.762 17.4811 102.133 17.4811C101.662 17.4811 101.249 17.5531 100.896 17.6971C100.555 17.8281 100.287 18.0179 100.09 18.2667C99.894 18.5024 99.7958 18.7905 99.7958 19.131C99.7958 19.3798 99.8482 19.6089 99.953 19.8184C100.071 20.028 100.241 20.2113 100.464 20.3684C100.686 20.5256 100.968 20.663 101.308 20.7809C101.649 20.8988 102.042 21.0035 102.487 21.0952C103.207 21.2523 103.849 21.4487 104.412 21.6844C104.988 21.9201 105.472 22.2082 105.865 22.5487C106.271 22.876 106.579 23.2558 106.788 23.6879C106.998 24.1069 107.103 24.5783 107.103 25.1021C107.103 25.9926 106.893 26.7651 106.474 27.4199C106.055 28.0746 105.459 28.5788 104.687 28.9323C103.914 29.2728 103.011 29.443 101.976 29.443ZM111.108 33.7642L113.288 28.6966L113.308 30.3269L108.201 18.8953H110.971L113.838 25.711C113.93 25.8813 114.022 26.1104 114.113 26.3985C114.205 26.6735 114.284 26.9419 114.349 27.2038L113.858 27.3806C113.95 27.1318 114.041 26.8634 114.133 26.5753C114.238 26.2872 114.343 25.9991 114.447 25.711L116.883 18.8953H119.672L115.371 29.2466L113.622 33.7642H111.108ZM121.18 29.2466V18.8953H123.517L123.556 21.0166L123.105 21.2523C123.249 20.794 123.504 20.375 123.871 19.9952C124.25 19.6024 124.702 19.2881 125.226 19.0524C125.75 18.8036 126.293 18.6792 126.856 18.6792C127.642 18.6792 128.297 18.8363 128.82 19.1506C129.357 19.4649 129.757 19.9363 130.018 20.5648C130.28 21.1934 130.411 21.9791 130.411 22.9219V29.2466H128.015V23.0987C128.015 22.5618 127.943 22.1231 127.799 21.7826C127.655 21.4291 127.432 21.1737 127.131 21.0166C126.83 20.8464 126.463 20.7744 126.031 20.8005C125.678 20.8005 125.35 20.8595 125.049 20.9773C124.748 21.0821 124.486 21.2392 124.263 21.4487C124.054 21.6451 123.884 21.8808 123.753 22.1558C123.635 22.4177 123.576 22.7058 123.576 23.0201V29.2466H122.378C122.155 29.2466 121.939 29.2466 121.73 29.2466C121.533 29.2466 121.35 29.2466 121.18 29.2466ZM137.588 29.443C136.619 29.443 135.748 29.2073 134.976 28.7359C134.203 28.2645 133.594 27.6228 133.149 26.811C132.704 25.9991 132.481 25.0825 132.481 24.0611C132.481 23.0397 132.704 22.1231 133.149 21.3112C133.594 20.4994 134.203 19.8577 134.976 19.3863C135.748 18.9149 136.619 18.6792 137.588 18.6792C138.505 18.6792 139.343 18.8625 140.102 19.2292C140.875 19.5827 141.464 20.0672 141.87 20.6827L140.554 22.2933C140.358 22.0183 140.109 21.7695 139.808 21.5469C139.506 21.3243 139.179 21.1476 138.825 21.0166C138.485 20.8857 138.151 20.8202 137.824 20.8202C137.234 20.8202 136.711 20.9642 136.252 21.2523C135.807 21.5273 135.454 21.9136 135.192 22.4112C134.93 22.8957 134.799 23.4457 134.799 24.0611C134.799 24.6766 134.93 25.2265 135.192 25.711C135.467 26.1955 135.833 26.5818 136.292 26.8699C136.75 27.158 137.261 27.302 137.824 27.302C138.177 27.302 138.511 27.2497 138.825 27.1449C139.14 27.027 139.441 26.8634 139.729 26.6538C140.03 26.4443 140.305 26.1824 140.554 25.8682L141.87 27.4788C141.438 28.055 140.829 28.5264 140.043 28.893C139.258 29.2597 138.439 29.443 137.588 29.443Z"
        fill="url(#paint0_linear_211_82)" />
    <defs>
        <linearGradient id="paint0_linear_211_82" x1="97.6703" y1="14.7153" x2="141.93" y2="29.8227"
            gradientUnits="userSpaceOnUse">
            <stop stop-color="#22D0EE" />
            <stop offset="1" stop-color="#06B6D4" />
        </linearGradient>
    </defs>
</svg>